<?xml version="1.0" encoding="utf-8"?>
<!-- Generator: Adobe Illustrator 24.2.3, SVG Export Plug-In . SVG Version: 6.00 Build 0)  -->
<svg version="1.1" id="Calque_1" xmlns="http://www.w3.org/2000/svg" xmlns:xlink="http://www.w3.org/1999/xlink" x="0px" y="0px"
	 viewBox="0 0 318.64 153.19" style="enable-background:new 0 0 318.64 153.19;" xml:space="preserve">
<style type="text/css">
	.st0{fill:#003ADC;}
</style>
<g>
	<g>
		<g>
			<path class="st0" d="M142.73,79.01c-6.87,0-11.21-2.58-11.21-5.16c0-1.41,1.82-2.11,3.64-2.11c1.76,0,3.58,0.7,3.58,2.11
				c0,2.7,2.35,4.93,8.33,4.23c8.92-1,12.73-7.98,4.34-7.98c-4.11,0-11.15,0.29-12.62,0.29c-8.57,0-8.63-7.39,3.64-8.98
				c-15.73-3.11-14.5-25.29,3.81-25.29c2.35,0,4.69,0.35,7.04,0.35c1.17,0,2.35-0.12,3.52-0.35c-2.93,0-4.4-2.11-4.4-4.23
				c0-2.82,2.23-4.23,4.46-4.23c2.17,0,4.4,1.41,4.4,4.23c0,4.69-5.28,5.22-9.27,5.11c13.73,4.4,11.5,24.77-5.75,24.77
				c-7.75,0-8.69,2.7-7.1,2.7c1.11,0,8.16-0.29,12.27-0.29c13.2,0,12.21,12.56-5.11,14.61C145.08,78.95,143.85,79.01,142.73,79.01z
				 M149.36,60.88c10.62-1.94,4.4-25.82-6.22-23.88C132.52,38.93,138.74,62.81,149.36,60.88z"/>
		</g>
		<g>
			<path class="st0" d="M177.88,68.15c-19.66,0-19.66-32.04,0-32.04C197.65,36.11,197.24,68.15,177.88,68.15z M174.77,36.99
				c-10.62,1.94-4.4,32.22,6.22,30.28C191.61,65.34,185.39,35.06,174.77,36.99z"/>
		</g>
		<g>
			<path class="st0" d="M194.95,66.69c1.88-0.53,3.23-1.23,3.23-3.11V29.89c0-1.88-1.35-2.58-3.23-3.11
				c-0.18-0.06-0.29-0.12-0.29-0.29s0.12-0.29,0.29-0.29c1.76,0.18,3.4,0.24,4.75,0.24c2.7,0,4.34-0.24,4.34-0.24v37.38
				c0,1.88,1.35,2.58,3.23,3.11c0.18,0.06,0.29,0.12,0.29,0.29c0,0.18-0.12,0.29-0.29,0.29c-2.41-0.29-4.28-0.47-6.16-0.47
				c-1.88,0-3.76,0.18-6.16,0.47c-0.18,0-0.29-0.12-0.29-0.29C194.65,66.8,194.77,66.75,194.95,66.69z"/>
		</g>
		<g>
			<path class="st0" d="M220.94,68.21c-15.2,0-15.02-32.1,0.18-32.1c6.1,0,8.92,3.64,9.68,6.69V29.89c0-1.88-1.35-2.58-3.23-3.11
				c-0.18-0.06-0.29-0.12-0.29-0.29s0.12-0.29,0.29-0.29c1.82,0.18,3.46,0.24,4.81,0.24c2.64,0,4.28-0.24,4.28-0.24v37.38
				c0,1.88,1.35,2.58,3.23,3.11c0.18,0.06,0.29,0.12,0.29,0.29c0,0.18-0.12,0.29-0.29,0.29c-1.53-0.18-3.05-0.23-4.4-0.23
				c-2.7,0-4.69,0.23-4.69,0.23v-6.51C229.98,63.4,227.99,68.21,220.94,68.21z M224.88,66.1c3.4-0.59,5.93-4.93,5.93-8.74V46.38
				c-0.06-6.34-4.17-8.86-7.16-8.39C212.14,39.81,215.43,67.68,224.88,66.1z"/>
		</g>
		<g>
			<path class="st0" d="M253.29,36.11c14.73,0,15.43,13.09,7.28,14.2c-3.64,0.47-12.73-0.88-14.2,3.58
				c0.82,6.69,3.93,12.73,10.15,12.68c3.52-0.06,5.87-2.05,8.45-5.22c0.29-0.35,0.7,0.06,0.47,0.41c-4.75,6.81-9.51,6.46-12.15,6.46
				C234.92,68.21,234.92,36.11,253.29,36.11z M246.25,52.66c1.7-3.93,8.63-4.23,11.09-5.69c3.93-2.35,1.88-11.44-4.58-10.15
				C247.77,37.81,245.66,45.44,246.25,52.66z"/>
		</g>
		<g>
			<path class="st0" d="M267.84,66.98c0-0.18,0.12-0.24,0.29-0.29c1.88-0.53,3.23-1.23,3.23-3.11V41.63c0-1.88-1.35-2.58-3.23-3.11
				c-0.18-0.06-0.29-0.12-0.29-0.29c0-0.18,0.12-0.35,0.29-0.29c1.82,0.29,3.17,0.41,4.58,0.41s2.76-0.12,4.52-0.41v9.21
				c1.76-8.45,7.69-11.03,12.26-11.03c5.87,0,7.86,4.28,7.86,9.51v17.96c0,1.88,1.35,2.58,3.23,3.11c0.18,0.06,0.29,0.12,0.29,0.29
				c0,0.18-0.12,0.29-0.29,0.29c-2.41-0.29-4.28-0.47-6.16-0.47s-3.76,0.18-6.16,0.47c-0.18,0-0.29-0.12-0.29-0.29
				c0-0.18,0.12-0.24,0.29-0.29c1.88-0.53,3.23-1.23,3.23-3.11V47.2c0-6.4-2.82-8.39-5.69-8.39c-5.28,0-8.51,6.98-8.57,13.15v11.62
				c0,1.88,1.35,2.58,3.23,3.11c0.18,0.06,0.29,0.12,0.29,0.29c0,0.18-0.12,0.29-0.29,0.29c-2.41-0.29-4.28-0.47-6.16-0.47
				s-3.76,0.18-6.16,0.47C267.95,67.27,267.84,67.16,267.84,66.98z"/>
		</g>
		<g>
			<path class="st0" d="M128.63,112.95c0-0.16,0.11-0.21,0.26-0.26c1.69-0.48,2.91-1.11,2.91-2.8V90.1c0-1.69-1.22-2.33-2.91-2.8
				c-0.16-0.05-0.26-0.11-0.26-0.26c0-0.16,0.11-0.32,0.26-0.26c1.64,0.26,2.86,0.37,4.13,0.37s2.49-0.11,4.07-0.37v8.31
				c1.59-7.62,6.93-9.95,10.9-9.95c5.77,0,7.25,4.92,7.25,9.95c1.59-7.62,6.93-9.95,11.06-9.95c5.29,0,7.09,3.86,7.09,8.57v16.19
				c0,1.69,1.22,2.33,2.91,2.8c0.16,0.05,0.26,0.11,0.26,0.26c0,0.16-0.11,0.26-0.26,0.26c-2.17-0.26-3.86-0.42-5.55-0.42
				c-1.69,0-3.39,0.16-5.55,0.42c-0.16,0-0.26-0.11-0.26-0.26c0-0.16,0.11-0.21,0.26-0.26c1.69-0.48,2.91-1.11,2.91-2.8V95.12
				c0-5.77-2.54-7.56-5.13-7.56c-4.76,0-7.67,6.3-7.72,11.85v10.47c0,1.69,1.22,2.33,2.91,2.8c0.16,0.05,0.26,0.11,0.26,0.26
				c0,0.16-0.11,0.26-0.26,0.26c-2.17-0.26-3.86-0.42-5.55-0.42c-1.69,0-3.39,0.16-5.55,0.42c-0.16,0-0.26-0.11-0.26-0.26
				c0-0.16,0.11-0.21,0.26-0.26c1.69-0.48,2.91-1.11,2.91-2.8V95.12c0-5.77-2.54-7.56-5.13-7.56c-4.34,0-7.67,6.3-7.72,11.85v10.47
				c0,1.69,1.22,2.33,2.91,2.8c0.16,0.05,0.26,0.11,0.26,0.26c0,0.16-0.11,0.26-0.26,0.26c-2.17-0.26-3.86-0.42-5.55-0.42
				s-3.39,0.16-5.55,0.42C128.74,113.21,128.63,113.11,128.63,112.95z"/>
		</g>
		<g>
			<path class="st0" d="M188.03,93.01c-0.42,1.32-1.69,2.49-3.65,2.49c-5.61,0-5.61-10.32,7.78-10.32c7.51,0,10.58,3.17,10.58,11.59
				v12.33c0,1.11,0.42,1.8,1.22,1.8c0.37,0,0.9-0.16,1.48-0.58c0.37-0.26,0.64,0,0.26,0.37c-2.49,2.49-4.71,3.39-6.19,3.39
				c-1.27,0-2.06-0.63-2.06-1.64v-4.39c-1.38,2.96-4.6,5.98-9.95,5.98c-12.11,0-12.11-14.18,0-14.18c4.5,0,8.52-1.85,9.95-3.97
				c0-4.07,0.21-10.16-5.77-10.16C187.08,85.71,184.97,89.99,188.03,93.01z M190.1,100.52c-8.09,1.22-6.56,13.33,0.85,12.22
				c3.91-0.58,6.56-5.13,6.51-6.35v-9.95C196.23,98.45,192.64,100.15,190.1,100.52z"/>
		</g>
		<g>
			<path class="st0" d="M217.97,114.06c-13.7,0-13.54-28.94,0.16-28.94c5.5,0,8.04,3.28,8.73,6.03V79.52c0-1.69-1.22-2.33-2.91-2.8
				c-0.16-0.05-0.26-0.11-0.26-0.26c0-0.16,0.11-0.26,0.26-0.26c1.64,0.16,3.12,0.21,4.34,0.21c2.38,0,3.86-0.21,3.86-0.21v33.7
				c0,1.69,1.22,2.33,2.91,2.8c0.16,0.05,0.26,0.11,0.26,0.26c0,0.16-0.11,0.26-0.26,0.26c-1.38-0.16-2.75-0.21-3.97-0.21
				c-2.43,0-4.23,0.21-4.23,0.21v-5.87C226.12,109.72,224.32,114.06,217.97,114.06z M221.52,112.16c3.07-0.53,5.34-4.44,5.34-7.88
				v-9.89c-0.05-5.71-3.76-7.99-6.45-7.56C210.04,88.46,213,113.58,221.52,112.16z"/>
		</g>
		<g>
			<path class="st0" d="M236.52,112.28c0-0.16,0.11-0.21,0.26-0.26c1.69-0.48,2.91-1.11,2.91-2.8V89.43c0-1.69-1.22-2.27-2.91-2.8
				c-0.16-0.05-0.26-0.11-0.26-0.26s0.11-0.32,0.26-0.26c1.59,0.26,2.86,0.37,4.13,0.37c1.22,0,2.49-0.11,4.07-0.37v23.12
				c0,1.69,1.22,2.33,2.91,2.8c0.16,0.05,0.26,0.11,0.26,0.26c0,0.16-0.11,0.26-0.26,0.26c-2.17-0.26-3.86-0.42-5.55-0.42
				s-3.39,0.16-5.55,0.42C236.63,112.55,236.52,112.44,236.52,112.28z M242.23,76.05c5.34,0,5.34,7.62,0,7.62
				S236.89,76.05,242.23,76.05z"/>
		</g>
		<g>
			<path class="st0" d="M250.27,112.28c0-0.16,0.11-0.21,0.26-0.26c1.69-0.48,2.91-1.11,2.91-2.8V89.43c0-1.69-1.22-2.33-2.91-2.8
				c-0.16-0.05-0.26-0.11-0.26-0.26s0.11-0.32,0.26-0.26c1.64,0.26,2.86,0.37,4.13,0.37s2.49-0.11,4.07-0.37v8.31
				c1.59-7.62,6.93-9.95,11.06-9.95c5.29,0,7.09,3.86,7.09,8.57v16.19c0,1.69,1.22,2.33,2.91,2.8c0.16,0.05,0.26,0.11,0.26,0.26
				c0,0.16-0.11,0.26-0.26,0.26c-2.17-0.26-3.86-0.42-5.55-0.42s-3.39,0.16-5.55,0.42c-0.16,0-0.26-0.11-0.26-0.26
				c0-0.16,0.11-0.21,0.26-0.26c1.69-0.48,2.91-1.11,2.91-2.8V94.46c0-5.77-2.54-7.56-5.13-7.56c-4.76,0-7.67,6.3-7.72,11.85v10.47
				c0,1.69,1.22,2.33,2.91,2.8c0.16,0.05,0.26,0.11,0.26,0.26c0,0.16-0.11,0.26-0.26,0.26c-2.17-0.26-3.86-0.42-5.55-0.42
				c-1.69,0-3.39,0.16-5.55,0.42C250.38,112.55,250.27,112.44,250.27,112.28z"/>
		</g>
		<g>
			<path class="st0" d="M291.53,92.34c-0.42,1.32-1.69,2.49-3.65,2.49c-5.61,0-5.61-10.32,7.78-10.32c7.51,0,10.58,3.17,10.58,11.59
				v12.33c0,1.11,0.42,1.8,1.22,1.8c0.37,0,0.9-0.16,1.48-0.58c0.37-0.26,0.64,0,0.26,0.37c-2.49,2.49-4.71,3.39-6.19,3.39
				c-1.27,0-2.06-0.63-2.06-1.64v-4.39c-1.38,2.96-4.6,5.98-9.95,5.98c-12.11,0-12.11-14.18,0-14.18c4.5,0,8.52-1.85,9.95-3.97
				c0-4.07,0.21-10.16-5.77-10.16C290.58,85.04,288.46,89.33,291.53,92.34z M293.59,99.85c-8.09,1.22-6.56,13.33,0.85,12.22
				c3.91-0.58,6.56-5.13,6.51-6.35v-9.95C299.73,97.79,296.13,99.48,293.59,99.85z"/>
		</g>
		<g>
			<path class="st0" d="M128.83,124.74h1.15v-1.94h0.85v1.94h1.47v0.74h-1.47v3.96c0,0.67,0.15,1.04,0.75,1.04
				c0.17,0,0.42-0.01,0.62-0.07v0.68c-0.24,0.1-0.58,0.12-0.87,0.12c-0.9,0-1.35-0.46-1.35-1.5v-4.24h-1.15V124.74z"/>
			<path class="st0" d="M138.31,129.27c0,0.62,0.01,1.56,0.01,1.86h-0.82c-0.03-0.17-0.04-0.57-0.04-1.04
				c-0.29,0.73-0.92,1.19-2,1.19c-0.99,0-2.1-0.44-2.1-2.32v-4.21h0.84v4.02c0,0.89,0.28,1.74,1.45,1.74c1.31,0,1.81-0.73,1.81-2.46
				v-3.3h0.85V129.27z"/>
			<path class="st0" d="M140.31,126.35c0-0.56,0-1.11-0.01-1.61h0.83c0.03,0.2,0.04,0.95,0.03,1.14c0.27-0.6,0.79-1.29,2.07-1.29
				c1.16,0,2.14,0.68,2.14,2.41v4.12h-0.85v-4c0-1.06-0.43-1.76-1.48-1.76c-1.38,0-1.88,1.11-1.88,2.45v3.31h-0.85V126.35z"/>
			<path class="st0" d="M147.36,121.79h0.85v1.3h-0.85V121.79z M147.36,124.74h0.85v6.39h-0.85V124.74z"/>
			<path class="st0" d="M150.4,129.34c0.2,0.77,0.76,1.23,1.7,1.23c1.05,0,1.46-0.47,1.46-1.12c0-0.67-0.3-0.99-1.63-1.31
				c-1.73-0.42-2.12-0.94-2.12-1.8c0-0.89,0.66-1.74,2.2-1.74c1.54,0,2.22,0.91,2.31,1.81h-0.83c-0.1-0.48-0.48-1.1-1.51-1.1
				c-1.01,0-1.31,0.49-1.31,0.96c0,0.54,0.29,0.8,1.51,1.1c1.86,0.45,2.28,1.06,2.28,2.01c0,1.14-0.92,1.9-2.37,1.9
				c-1.55,0-2.36-0.8-2.53-1.94H150.4z"/>
			<path class="st0" d="M155.95,121.79h0.85v1.3h-0.85V121.79z M155.95,124.74h0.85v6.39h-0.85V124.74z"/>
			<path class="st0" d="M163.27,129.83c0,0.57,0.05,1.1,0.09,1.29h-0.81c-0.05-0.15-0.09-0.44-0.11-0.92
				c-0.22,0.45-0.76,1.07-2.04,1.07c-1.49,0-2.13-0.97-2.13-1.93c0-1.41,1.1-2.06,3.01-2.06c0.49,0,0.91,0,1.16,0v-0.6
				c0-0.6-0.19-1.38-1.52-1.38c-1.19,0-1.37,0.61-1.5,1.12h-0.83c0.08-0.78,0.56-1.84,2.36-1.84c1.5,0,2.34,0.63,2.34,2.05V129.83z
				 M162.44,127.94c-0.22,0-0.77,0-1.15,0c-1.35,0-2.14,0.36-2.14,1.37c0,0.74,0.52,1.26,1.37,1.26c1.69,0,1.93-1.13,1.93-2.41
				V127.94z"/>
			<path class="st0" d="M165.28,126.35c0-0.56,0-1.11-0.01-1.61h0.83c0.03,0.2,0.04,0.95,0.03,1.14c0.27-0.6,0.79-1.29,2.07-1.29
				c1.16,0,2.14,0.68,2.14,2.41v4.12h-0.85v-4c0-1.06-0.43-1.76-1.48-1.76c-1.38,0-1.88,1.11-1.88,2.45v3.31h-0.85V126.35z"/>
			<path class="st0" d="M180.45,129.22c-0.29,1.11-1.03,2.06-2.55,2.06c-1.67,0-2.78-1.22-2.78-3.32c0-1.78,0.97-3.37,2.86-3.37
				c1.72,0,2.37,1.22,2.47,2.09h-0.85c-0.18-0.7-0.63-1.34-1.64-1.34c-1.25,0-1.96,1.07-1.96,2.6c0,1.49,0.67,2.6,1.91,2.6
				c0.87,0,1.39-0.45,1.69-1.32H180.45z"/>
			<path class="st0" d="M181.86,126.48c0-0.99-0.01-1.47-0.01-1.74h0.83c0.01,0.19,0.03,0.64,0.03,1.37
				c0.35-0.92,1.15-1.48,2.19-1.52v0.88c-1.32,0.07-2.19,0.88-2.19,2.44v3.22h-0.85V126.48z"/>
			<path class="st0" d="M186.42,128.07c0.01,1.49,0.76,2.46,1.92,2.46c1.11,0,1.48-0.61,1.7-1.1h0.86
				c-0.26,0.83-0.94,1.85-2.59,1.85c-1.97,0-2.75-1.65-2.75-3.29c0-1.86,0.93-3.4,2.83-3.4c2.01,0,2.66,1.68,2.66,2.95
				c0,0.19,0,0.36-0.01,0.53H186.42z M190.17,127.41c-0.01-1.17-0.63-2.09-1.81-2.09c-1.23,0-1.78,0.86-1.91,2.09H190.17z"/>
			<path class="st0" d="M197.09,129.83c0,0.57,0.05,1.1,0.09,1.29h-0.81c-0.05-0.15-0.09-0.44-0.11-0.92
				c-0.22,0.45-0.76,1.07-2.04,1.07c-1.49,0-2.13-0.97-2.13-1.93c0-1.41,1.1-2.06,3.01-2.06c0.49,0,0.91,0,1.16,0v-0.6
				c0-0.6-0.19-1.38-1.52-1.38c-1.19,0-1.37,0.61-1.5,1.12h-0.83c0.08-0.78,0.56-1.84,2.36-1.84c1.5,0,2.34,0.63,2.34,2.05V129.83z
				 M196.25,127.94c-0.22,0-0.77,0-1.15,0c-1.35,0-2.14,0.36-2.14,1.37c0,0.74,0.52,1.26,1.37,1.26c1.69,0,1.93-1.13,1.93-2.41
				V127.94z"/>
			<path class="st0" d="M198.12,124.74h1.15v-1.94h0.85v1.94h1.47v0.74h-1.47v3.96c0,0.67,0.15,1.04,0.75,1.04
				c0.17,0,0.42-0.01,0.62-0.07v0.68c-0.24,0.1-0.58,0.12-0.87,0.12c-0.9,0-1.35-0.46-1.35-1.5v-4.24h-1.15V124.74z"/>
			<path class="st0" d="M202.83,121.79h0.85v1.3h-0.85V121.79z M202.83,124.74h0.85v6.39h-0.85V124.74z"/>
			<path class="st0" d="M205.83,124.74c0.95,2.78,1.63,4.76,1.85,5.56h0.01c0.15-0.58,0.85-2.49,1.96-5.56h0.88l-2.38,6.39h-0.97
				l-2.25-6.39H205.83z"/>
			<path class="st0" d="M211.92,128.07c0.01,1.49,0.76,2.46,1.92,2.46c1.11,0,1.48-0.61,1.7-1.1h0.86
				c-0.26,0.83-0.94,1.85-2.59,1.85c-1.97,0-2.75-1.65-2.75-3.29c0-1.86,0.93-3.4,2.83-3.4c2.01,0,2.66,1.68,2.66,2.95
				c0,0.19,0,0.36-0.01,0.53H211.92z M215.67,127.41c-0.01-1.17-0.63-2.09-1.81-2.09c-1.23,0-1.78,0.86-1.91,2.09H215.67z"/>
			<path class="st0" d="M226.13,129.22c-0.29,1.11-1.03,2.06-2.55,2.06c-1.67,0-2.78-1.22-2.78-3.32c0-1.78,0.97-3.37,2.86-3.37
				c1.72,0,2.37,1.22,2.47,2.09h-0.85c-0.18-0.7-0.63-1.34-1.64-1.34c-1.25,0-1.96,1.07-1.96,2.6c0,1.49,0.67,2.6,1.91,2.6
				c0.87,0,1.39-0.45,1.69-1.32H226.13z"/>
			<path class="st0" d="M232.41,129.27c0,0.62,0.01,1.56,0.01,1.86h-0.82c-0.03-0.17-0.04-0.57-0.04-1.04
				c-0.29,0.73-0.92,1.19-2,1.19c-0.99,0-2.1-0.44-2.1-2.32v-4.21h0.84v4.02c0,0.89,0.28,1.74,1.45,1.74c1.31,0,1.81-0.73,1.81-2.46
				v-3.3h0.85V129.27z"/>
			<path class="st0" d="M234.41,131.13v-9.34h0.85v9.34H234.41z"/>
			<path class="st0" d="M236.3,124.74h1.15v-1.94h0.85v1.94h1.47v0.74h-1.47v3.96c0,0.67,0.15,1.04,0.75,1.04
				c0.17,0,0.42-0.01,0.62-0.07v0.68c-0.24,0.1-0.58,0.12-0.87,0.12c-0.9,0-1.35-0.46-1.35-1.5v-4.24h-1.15V124.74z"/>
			<path class="st0" d="M245.79,129.27c0,0.62,0.01,1.56,0.01,1.86h-0.82c-0.03-0.17-0.04-0.57-0.04-1.04
				c-0.29,0.73-0.92,1.19-2,1.19c-0.99,0-2.1-0.44-2.1-2.32v-4.21h0.84v4.02c0,0.89,0.28,1.74,1.45,1.74c1.31,0,1.81-0.73,1.81-2.46
				v-3.3h0.85V129.27z"/>
			<path class="st0" d="M247.78,126.48c0-0.99-0.01-1.47-0.01-1.74h0.83c0.01,0.19,0.03,0.64,0.03,1.37
				c0.35-0.92,1.15-1.48,2.19-1.52v0.88c-1.32,0.07-2.19,0.88-2.19,2.44v3.22h-0.85V126.48z"/>
			<path class="st0" d="M256.39,129.83c0,0.57,0.05,1.1,0.09,1.29h-0.81c-0.05-0.15-0.09-0.44-0.11-0.92
				c-0.22,0.45-0.76,1.07-2.04,1.07c-1.49,0-2.13-0.97-2.13-1.93c0-1.41,1.1-2.06,3.01-2.06c0.49,0,0.91,0,1.16,0v-0.6
				c0-0.6-0.19-1.38-1.52-1.38c-1.19,0-1.37,0.61-1.5,1.12h-0.83c0.08-0.78,0.56-1.84,2.36-1.84c1.5,0,2.34,0.63,2.34,2.05V129.83z
				 M255.56,127.94c-0.22,0-0.77,0-1.15,0c-1.35,0-2.14,0.36-2.14,1.37c0,0.74,0.52,1.26,1.37,1.26c1.69,0,1.93-1.13,1.93-2.41
				V127.94z"/>
			<path class="st0" d="M258.4,131.13v-9.34h0.85v9.34H258.4z"/>
			<path class="st0" d="M264.38,121.79h0.85v1.3h-0.85V121.79z M264.38,124.74h0.85v6.39h-0.85V124.74z"/>
			<path class="st0" d="M267.24,126.35c0-0.56,0-1.11-0.01-1.61h0.83c0.03,0.2,0.04,0.95,0.03,1.14c0.27-0.6,0.79-1.29,2.07-1.29
				c1.16,0,2.14,0.68,2.14,2.41v4.12h-0.85v-4c0-1.06-0.43-1.76-1.48-1.76c-1.38,0-1.88,1.11-1.88,2.45v3.31h-0.85V126.35z"/>
			<path class="st0" d="M279.39,121.79v7.51c0,0.61,0,1.19,0.01,1.82h-0.82c-0.03-0.16-0.04-0.71-0.05-1
				c-0.32,0.73-1,1.15-2.08,1.15c-1.65,0-2.65-1.34-2.65-3.27c0-1.97,1.09-3.42,2.84-3.42c1.21,0,1.72,0.51,1.9,0.89v-3.69H279.39z
				 M274.7,127.98c0,1.66,0.83,2.55,1.88,2.55c1.6,0,2-1.13,2-2.72c0-1.54-0.35-2.47-1.9-2.47
				C275.48,125.34,274.7,126.3,274.7,127.98z"/>
			<path class="st0" d="M286.2,129.27c0,0.62,0.01,1.56,0.01,1.86h-0.82c-0.03-0.17-0.04-0.57-0.04-1.04
				c-0.29,0.73-0.92,1.19-2,1.19c-0.99,0-2.1-0.44-2.1-2.32v-4.21h0.84v4.02c0,0.89,0.28,1.74,1.45,1.74c1.31,0,1.81-0.73,1.81-2.46
				v-3.3h0.85V129.27z"/>
			<path class="st0" d="M288.36,129.34c0.2,0.77,0.76,1.23,1.7,1.23c1.05,0,1.46-0.47,1.46-1.12c0-0.67-0.3-0.99-1.63-1.31
				c-1.73-0.42-2.12-0.94-2.12-1.8c0-0.89,0.66-1.74,2.2-1.74c1.54,0,2.22,0.91,2.31,1.81h-0.83c-0.1-0.48-0.48-1.1-1.51-1.1
				c-1.01,0-1.31,0.49-1.31,0.96c0,0.54,0.29,0.8,1.51,1.1c1.86,0.45,2.28,1.06,2.28,2.01c0,1.14-0.92,1.9-2.37,1.9
				c-1.55,0-2.36-0.8-2.53-1.94H288.36z"/>
			<path class="st0" d="M292.99,124.74h1.15v-1.94h0.85v1.94h1.47v0.74h-1.47v3.96c0,0.67,0.15,1.04,0.75,1.04
				c0.17,0,0.42-0.01,0.62-0.07v0.68c-0.24,0.1-0.58,0.12-0.87,0.12c-0.9,0-1.35-0.46-1.35-1.5v-4.24h-1.15V124.74z"/>
			<path class="st0" d="M297.61,126.48c0-0.99-0.01-1.47-0.01-1.74h0.83c0.01,0.19,0.03,0.64,0.03,1.37
				c0.35-0.92,1.15-1.48,2.19-1.52v0.88c-1.32,0.07-2.19,0.88-2.19,2.44v3.22h-0.85V126.48z"/>
			<path class="st0" d="M302.36,124.74c1.17,3.38,1.74,4.97,1.93,5.64h0.01c0.23-0.75,0.72-2.23,1.87-5.64h0.87l-2.35,6.72
				c-0.66,1.88-1.13,2.33-2.36,2.33c-0.22,0-0.41-0.01-0.63-0.04v-0.78c0.18,0.02,0.36,0.04,0.55,0.04c0.87,0,1.17-0.41,1.6-1.61
				l-2.42-6.65H302.36z"/>
		</g>
	</g>
	<g>
		<g>
			<path class="st0" d="M312.91,28.41c0,3.77-3.03,6.76-6.88,6.76c-3.85,0-6.92-2.99-6.92-6.76c0-3.77,3.07-6.72,6.96-6.72
				C309.88,21.7,312.91,24.65,312.91,28.41z M300.83,28.41c0,2.99,2.25,5.36,5.24,5.36c2.91,0.04,5.12-2.38,5.12-5.32
				c0-2.99-2.21-5.41-5.2-5.41C303.08,23.05,300.83,25.47,300.83,28.41z M304.96,31.9h-1.56v-6.72c0.62-0.08,1.48-0.2,2.58-0.2
				c1.27,0,1.84,0.2,2.29,0.53c0.41,0.29,0.7,0.78,0.7,1.43c0,0.82-0.61,1.35-1.39,1.6v0.08c0.66,0.2,0.98,0.74,1.19,1.64
				c0.2,1.02,0.37,1.39,0.49,1.64h-1.64c-0.21-0.25-0.33-0.82-0.53-1.64c-0.12-0.7-0.53-1.02-1.39-1.02h-0.74V31.9z M305.01,28.13
				h0.74c0.86,0,1.56-0.29,1.56-0.98c0-0.61-0.45-1.02-1.43-1.02c-0.41,0-0.7,0.04-0.86,0.08V28.13z"/>
		</g>
	</g>
</g>
<g>
	<g>
		<g>
			<g>
				<g>
					<path class="st0" d="M36.86,62.39c-0.05,0.46-0.19,0.92-0.46,1.32c-0.26,0.39-0.64,0.71-1.05,0.93
						c-0.41,0.23-0.86,0.36-1.28,0.52c-0.42,0.15-0.84,0.31-1.26,0.48c-1.67,0.67-3.31,1.44-4.76,2.46
						c-1.45,1.01-2.69,2.33-3.35,3.93c-0.63,1.62-0.98,3.4-1.2,5.16c-0.09,0.87-0.19,1.83-0.39,2.73c-0.18,0.91-0.43,1.81-0.73,2.69
						c-0.26,0.75-0.57,1.51-0.92,2.22c-0.05,0.11-0.1,0.23-0.16,0.34c-0.09,0.2-0.19,0.4-0.28,0.6c-0.29,0.61-0.58,1.23-0.86,1.85
						c-0.36,0.81-0.71,1.64-1,2.46c-0.04,0.12-0.08,0.24-0.12,0.36c-0.09,0.29-0.17,0.58-0.24,0.86c-0.09,0.39-0.15,0.82-0.1,1.04
						l-0.07,0.01c-0.26-0.75-0.55-1.62-0.86-2.57c0.02-0.06,0.05-0.13,0.07-0.19c0.16-0.44,0.34-0.86,0.53-1.29
						c0.19-0.42,0.38-0.84,0.58-1.25c0.2-0.41,0.4-0.82,0.6-1.22c0.18-0.36,0.37-0.72,0.55-1.08c0.02-0.04,0.04-0.09,0.07-0.13
						c0.42-0.81,0.79-1.58,1.11-2.4c0.32-0.82,0.58-1.66,0.79-2.51c0.21-0.87,0.33-1.71,0.47-2.63c0.29-1.81,0.71-3.61,1.45-5.33
						c0.79-1.75,2.19-3.11,3.74-4.11c1.55-1.01,3.24-1.73,4.95-2.34c0.43-0.15,0.86-0.3,1.29-0.44c0.43-0.15,0.87-0.25,1.25-0.45
						c0.38-0.19,0.73-0.46,0.99-0.81c0.25-0.35,0.41-0.77,0.47-1.2c0.12-0.88-0.07-1.78-0.35-2.63c-0.29-0.85-0.68-1.67-1.15-2.44
						c0.5,0.75,0.92,1.56,1.25,2.41C36.72,60.55,36.95,61.46,36.86,62.39z"/>
				</g>
			</g>
		</g>
		<g>
			<g>
				<g>
					<path class="st0" d="M31.47,54.05l-0.1,0.99c-0.09-0.01-9.27-0.88-14.27,5.55c-4.02,5.16-1.86,16.71,0.46,25.01
						c0.09,0.34,0.19,0.68,0.29,1.02c0.16,0.58,0.33,1.14,0.5,1.68c0.23,0.76,0.46,1.48,0.68,2.14c0.55,1.67,1.02,2.99,1.32,3.77
						c0.18,0.5,0.3,0.79,0.31,0.81l0.02,0.08l0.02,0.1l3.47,15.86l3,15l-0.99,0.16l-3-14.98l-3.48-15.9
						c-0.02-0.04-0.04-0.11-0.08-0.2c-0.09-0.23-0.24-0.61-0.42-1.12c-0.17-0.46-0.37-1.02-0.6-1.67c-0.26-0.75-0.55-1.62-0.86-2.57
						c-0.23-0.72-0.47-1.5-0.72-2.32c-0.11-0.37-0.22-0.75-0.33-1.14c-2.43-8.5-4.77-20.69-0.39-26.33
						C21.65,53.11,31.07,54.01,31.47,54.05z"/>
				</g>
			</g>
		</g>
		<g>
			<g>
				<g>
					<path class="st0" d="M47.5,68.36l-0.04-0.29l-0.08-0.59c-0.24-1.57-0.56-3.13-1.02-4.67c-0.47-1.53-1.03-3.06-1.99-4.45
						c-0.11-0.18-0.25-0.34-0.38-0.5c-0.12-0.17-0.28-0.32-0.43-0.47l-0.46-0.45c-0.16-0.14-0.34-0.25-0.51-0.38
						c-0.17-0.12-0.33-0.26-0.52-0.36l-0.2-0.11l-0.34-0.19c-0.36-0.22-0.75-0.36-1.12-0.53c-1.52-0.62-3.11-0.97-4.71-1.15
						c-1.6-0.18-3.18-0.26-4.8-0.16l0.06,1c1.52-0.02,3.08,0.07,4.6,0.28c1.52,0.22,3.03,0.54,4.41,1.12
						c0.4,0.16,0.8,0.35,1.17,0.57c0.44,0.25,0.85,0.53,1.23,0.86c0.4,0.34,0.75,0.73,1.06,1.16c0.86,1.19,1.43,2.64,1.9,4.1
						c0.46,1.47,0.8,2.98,1.06,4.51l0.05,0.3c-0.29-0.56-0.62-1.1-0.97-1.62c-1.8-2.67-4.28-4.81-7.05-6.3
						c1.27,0.93,2.46,1.96,3.54,3.07c1.08,1.13,2.02,2.36,2.81,3.68c0.39,0.66,0.75,1.34,1.07,2.04l0.06,0.13l0.02,0.06
						c0.01,0.02,0.04,0.09,0.07,0.13c0.11,0.18,0.33,0.34,0.56,0.37c0.22,0.04,0.45-0.01,0.63-0.14c0.19-0.12,0.33-0.35,0.35-0.58
						C47.54,68.51,47.5,68.47,47.5,68.36z M46.77,68.62C46.77,68.62,46.77,68.62,46.77,68.62C46.77,68.61,46.77,68.62,46.77,68.62
						L46.77,68.62z"/>
				</g>
			</g>
		</g>
		<g>
			<g>
				<g>
					<path class="st0" d="M49.48,91.34c-0.47,1.34-1.55,2.29-3.19,2.84c-0.59,0.19-1.18,0.38-1.78,0.57
						c-3.9,1.25-7.89,2.53-10.49,5.51c-0.31,0.36-0.6,0.74-0.87,1.15c-0.64,0.97-1.15,2.09-1.5,3.4
						c-1.96,7.34-2.47,15.78-2.48,15.86l-1-0.06c0-0.08,0.52-8.61,2.51-16.06c0.36-1.37,0.89-2.54,1.55-3.56
						c0.23-0.36,0.48-0.71,0.75-1.04c1.29-1.59,2.91-2.74,4.68-3.65c0.33-0.17,0.66-0.33,1-0.48c1.81-0.82,3.72-1.44,5.55-2.02
						c0.59-0.19,1.19-0.38,1.77-0.57c1.34-0.44,2.2-1.19,2.56-2.22c0.89-2.51-1.31-5.98-1.33-6.01l0.84-0.54
						C48.15,84.62,50.53,88.36,49.48,91.34z"/>
				</g>
			</g>
		</g>
		<g>
			<g>
				<g>
					<path class="st0" d="M26,72.55c0.97-0.85,1.99-1.6,3.08-2.27c1.09-0.66,2.25-1.23,3.51-1.59c1.24-0.34,2.66-0.43,3.93,0.14
						c0.63,0.29,1.17,0.73,1.61,1.23c0.46,0.5,0.76,1.1,1.05,1.69c0.13,0.3,0.24,0.61,0.36,0.91l0.31,0.89l0.61,1.79l1.22,3.57
						l2.44,7.14l0.11,0.32l-0.25,0.21c-0.65,0.54-1.34,0.92-2.11,1.21c-0.77,0.28-1.63,0.4-2.47,0.23
						c-0.83-0.17-1.63-0.57-2.21-1.16c-0.17-0.13-0.3-0.29-0.42-0.44l-0.39-0.47c-0.22-0.33-0.43-0.67-0.64-1.01l0.88-0.48
						c0.19,0.3,0.37,0.6,0.57,0.9l0.33,0.4c0.11,0.13,0.22,0.27,0.35,0.37l0.38,0.33c0.14,0.09,0.28,0.17,0.42,0.25
						c0.14,0.1,0.29,0.14,0.45,0.2l0.23,0.09c0.08,0.02,0.16,0.03,0.24,0.04c0.64,0.12,1.31,0.04,1.96-0.19
						c0.63-0.23,1.28-0.6,1.78-1.02l-0.14,0.53l-2.33-7.18l-1.17-3.59l-0.58-1.79l-0.29-0.9c-0.11-0.29-0.21-0.57-0.32-0.85
						c-0.48-1.1-1.21-2.09-2.26-2.59c-1.05-0.49-2.3-0.45-3.46-0.15c-1.17,0.31-2.3,0.84-3.37,1.47c-1.06,0.63-2.09,1.36-3.03,2.16
						L26,72.55z"/>
				</g>
			</g>
		</g>
		<g>
			<g>
				<g>
					<path class="st0" d="M34.02,100.26c-0.31,0.36-0.6,0.74-0.87,1.15c-0.31-0.13-0.62-0.27-0.92-0.42
						c-0.3-0.15-0.59-0.31-0.88-0.48c-0.97-0.58-1.89-1.23-2.73-1.95c-0.85-0.72-1.64-1.49-2.38-2.3c-0.74-0.81-1.44-1.66-2.06-2.56
						c0.72,0.82,1.51,1.58,2.32,2.29c0.82,0.71,1.68,1.37,2.57,1.97s1.84,1.11,2.79,1.55c0.36,0.16,0.74,0.31,1.11,0.44
						C33.33,100.07,33.68,100.17,34.02,100.26z"/>
				</g>
			</g>
		</g>
		<g>
			<g>
				<g>
					<path class="st0" d="M33.06,80.43c-0.82,0-1.72-0.13-2.66-0.49c-2.95-1.13-4.13-3.67-4.42-4.42l1.4-0.54
						c0.24,0.61,1.19,2.65,3.56,3.56c2.63,1,4.91-0.2,5.34-0.45l0.75,1.29C36.65,79.61,35.1,80.43,33.06,80.43z"/>
				</g>
			</g>
		</g>
		<g>
			<g>
				<g>
					<path class="st0" d="M43.74,79.52c-1.03,0-2.03-0.48-2.69-1.31l1.18-0.93c0.43,0.55,1.12,0.82,1.79,0.72
						c0.98-0.15,1.41-1.04,1.43-1.08l1.35,0.64c-0.08,0.17-0.83,1.65-2.56,1.92C44.08,79.51,43.91,79.52,43.74,79.52z"/>
				</g>
			</g>
		</g>
		<g>
			<g>
				<g>
					<path class="st0" d="M47.2,73.74l-0.57,0.07c-0.06-0.47-0.21-0.9-0.46-1.28c-0.18-0.29-0.41-0.55-0.69-0.76
						c-0.54-0.41-1.18-0.6-1.78-0.51c-0.98,0.14-1.82,0.99-2.08,2.11l-0.97-0.23c0.35-1.52,1.52-2.67,2.91-2.87
						c0.85-0.12,1.77,0.13,2.52,0.71c0.02,0.01,0.04,0.03,0.06,0.05c0.42,0.33,0.77,0.75,1.02,1.22
						C47.18,72.73,47.19,73.24,47.2,73.74z"/>
				</g>
			</g>
		</g>
		<g>
			<g>
				<g>
					<path class="st0" d="M44.44,94.6l-0.6-0.8c3.66-2.74,3.32-11.9,2.81-13.95c-0.09-0.36-0.16-0.95-0.22-1.68
						c-0.02-0.26-0.04-0.53-0.06-0.82c-0.09-1.45-0.15-3.22-0.18-4.82c-0.01-0.52-0.02-1.03-0.02-1.5c-0.01-0.66-0.01-1.24-0.01-1.7
						c0-0.6,0-0.99,0-1.06h1c0,0.02,0,0.44,0,1.12c0,0.73,0.01,1.75,0.03,2.86c0.01,0.48,0.02,0.99,0.03,1.49
						c0.06,2.44,0.18,4.98,0.41,5.88C48.08,81.49,48.75,91.37,44.44,94.6z"/>
				</g>
			</g>
		</g>
		<g>
			<g>
				<g>
					<path class="st0" d="M41.09,112.87l-1.94,0.29c2.63-1.12,5.76-3.73,6.26-5.38c0.24-0.79,0.15-1.37,0.04-2.09
						c-0.11-0.74-0.24-1.58-0.06-2.82c0.27-1.84,0.96-2.9,1.69-4.02c0.37-0.57,0.76-1.15,1.09-1.86c1.15-2.45,1.26-5.53,0.32-9.14
						l0.97-0.25c1,3.84,0.88,7.14-0.38,9.82c-0.36,0.78-0.77,1.39-1.16,1.99c-0.7,1.07-1.31,1.99-1.54,3.61
						c-0.16,1.09-0.05,1.82,0.06,2.53c0.12,0.78,0.23,1.52-0.07,2.53C45.78,110.01,44,111.63,41.09,112.87z"/>
				</g>
			</g>
		</g>
		<g>
			<g>
				<g>
					<path class="st0" d="M59.81,136.35c-0.1,0.32-0.22,0.66-0.35,1h-1.07c0.14-0.34,0.26-0.67,0.37-1c1.38-4.07,0.54-7.02,0.4-7.49
						c-0.59-0.77-6.34-8.18-10.96-11.57c-0.28-0.21-0.56-0.4-0.83-0.58c-0.84-0.54-1.64-0.92-2.33-1.06
						c-3.98-0.8-6.64,2.58-7.3,3.52c0.63,1.13,2.86,5.47,2.4,9.51c-0.03,0.29-0.06,0.57-0.09,0.85c-0.03,0.35-0.06,0.69-0.09,1.03
						c-0.19,2.24-0.21,4.14,0.08,5.8c0.05,0.34,0.13,0.67,0.22,1h-1.03c-0.08-0.32-0.15-0.65-0.2-1c-0.27-1.66-0.26-3.52-0.08-5.67
						c0.02-0.33,0.05-0.67,0.09-1.01c0.03-0.36,0.07-0.73,0.11-1.1c0.47-4.27-2.4-9.12-2.43-9.17l-0.15-0.25l0.15-0.25
						c0.03-0.05,3.23-5.28,8.51-4.23c0.85,0.17,1.82,0.65,2.84,1.33c0.27,0.18,0.55,0.38,0.83,0.59
						c4.96,3.71,10.78,11.33,11.09,11.74l0.07,0.12C60.12,128.6,61.27,131.77,59.81,136.35z"/>
				</g>
			</g>
		</g>
		<g>
			<g>
				<g>
					<path class="st0" d="M64.7,107.16c0.03-0.01-0.68,0.04-0.61,0.01c0.06-0.02-0.04-0.46,0-0.5l0.15-0.35
						c0.05-0.04,0.1-0.08,0.16-0.11c0.07-0.03,0.06-0.02,0.1-0.03c0.05-0.01,0.1-0.01,0.15-0.01c0.06,0,0.08,0.01,0.1,0.02
						l0.06,0.02c0.04,0.01,0.07,0.03,0.11,0.05c0.02,0.01,0.03,0.02,0.05,0.03c0.06,0.04,0.12,0.09,0.14,0.12
						c0.07,0.07,0.12,0.14,0.16,0.2c0.1,0.13,0.16,0.24,0.24,0.36c0.14,0.23,0.26,0.47,0.38,0.7c0.23,0.47,0.45,0.94,0.65,1.4
						c0.41,0.94,0.79,1.89,1.16,2.84c0.76,1.9,1.36,3.85,2.27,5.63c0.91,1.79,2.06,3.47,3.51,4.88c1.45,1.39,3.15,2.59,5.09,3.21
						c-1.97-0.54-3.73-1.67-5.26-3.03c-1.52-1.37-2.77-3.04-3.78-4.83c-0.52-0.89-0.92-1.84-1.33-2.78
						c-0.39-0.94-0.78-1.87-1.19-2.8c-0.41-0.93-0.82-1.85-1.26-2.76c-0.22-0.45-0.45-0.9-0.69-1.33c-0.12-0.22-0.24-0.43-0.37-0.63
						c-0.06-0.09-0.13-0.2-0.19-0.27c-0.03-0.05-0.06-0.08-0.08-0.09c-0.02-0.02-0.01-0.01,0,0c0,0,0,0,0.01,0L64.7,107.16z"/>
				</g>
			</g>
		</g>
		<g>
			<g>
				<g>
					<path class="st0" d="M18.14,136.35c-0.11,0.34-0.23,0.68-0.37,1h-1.11c0.13-0.29,0.27-0.63,0.4-1
						c0.52-1.46,0.91-3.35,0.18-4.85c-0.14-0.29-0.32-0.56-0.56-0.82c-0.2-0.23-0.45-0.45-0.75-0.64c-0.25-0.16-0.51-0.19-0.81-0.09
						c-1.52,0.5-3.34,3.76-4.56,6.4c-0.16,0.35-0.31,0.68-0.45,1H9.03c0.13-0.3,0.27-0.64,0.43-1c1.19-2.66,3.28-6.67,5.35-7.35
						c0.58-0.19,1.16-0.12,1.66,0.2c0.44,0.28,0.8,0.61,1.1,0.96c0.22,0.26,0.4,0.55,0.54,0.84
						C18.92,132.62,18.7,134.62,18.14,136.35z"/>
				</g>
			</g>
		</g>
		<g>
			<g>
				<g>
					<path class="st0" d="M21.74,130.12c-0.07,0-0.15,0.01-0.23,0.02c-1.04,0.12-2.39,0.42-3.4,0.86c-0.33,0.14-0.63,0.31-0.87,0.49
						c-0.14-0.29-0.32-0.56-0.56-0.82c0.26-0.19,0.56-0.37,0.88-0.52c1.51-0.72,3.45-0.97,3.98-1.03c0.03,0,0.06,0,0.09-0.01
						L21.74,130.12z"/>
				</g>
			</g>
		</g>
		<g>
			<g>
				<g>
					<path class="st0" d="M52.67,111.62c-0.24-0.49-0.74-0.76-1.28-0.69c-2.1,0.26-5.5,0.72-9,1.32c-0.48,0.08-0.97,0.17-1.46,0.26
						c-1.15,0.21-2.29,0.43-3.39,0.66c-4.73,1.02-7.04,4.41-8.36,7.22l0,0c-0.04,0.09-0.08,0.18-0.12,0.27
						c-0.33,0.73-0.6,1.42-0.83,2.01c-0.19,0.51-0.36,0.94-0.51,1.24c-0.38,0.77-0.85,1.38-1.27,1.84
						c-1.62-0.24-3.23,0.33-4.18,1.58c-0.44,0.59-0.65,1.22-0.74,1.81c-0.05,0.36-0.06,0.71-0.04,1.01c0.03,0.5,0.13,0.89,0.19,1.07
						c0.11,1.07,0.48,2.64,1.58,4.18c0.25,0.35,0.52,0.67,0.79,0.96c0.37,0.39,0.76,0.72,1.15,1h1.95c-0.47-0.22-1.04-0.54-1.62-1
						c-0.5-0.4-1.01-0.9-1.47-1.54c-0.99-1.39-1.31-2.8-1.4-3.75l-0.02-0.1c-0.05-0.18-0.52-1.79,0.42-3.04
						c0.54-0.72,1.4-1.14,2.33-1.22c0,0-0.01,0.01-0.01,0.01l-0.15,0.1l-0.05,0.17c-0.66,2.14-0.01,4.5,1.64,6
						c1.47,1.33,3.55,1.81,5.44,1.28l0.19,0.93c0.08,0.4,0.05,0.8-0.07,1.16c-0.11,0.33-0.3,0.64-0.57,0.87
						c-0.05,0.04-0.1,0.08-0.16,0.12h1.35c0.19-0.3,0.33-0.64,0.41-1c0.1-0.43,0.1-0.89,0.01-1.35l-0.41-2.08l-0.55,0.22
						c-1.69,0.66-3.64,0.3-4.97-0.9c-1.33-1.21-1.87-3.08-1.4-4.81c0.15-0.11,0.4-0.31,0.69-0.6l0.74-0.8
						c0.37-0.45,0.75-1.01,1.08-1.67c0.17-0.34,0.35-0.79,0.55-1.33c1.04-2.68,2.97-7.68,8.58-8.88c4.86-1.04,10.7-1.85,13.76-2.23
						c0.16-0.02,0.23,0.09,0.25,0.14c0.02,0.05,0.06,0.17-0.05,0.29l-3.65,3.65l-0.71,0.71c0.27,0.18,0.55,0.37,0.83,0.58l4.23-4.23
						C52.82,112.67,52.91,112.11,52.67,111.62z"/>
				</g>
			</g>
		</g>
		<g>
			<g>
				<g>
					<path class="st0" d="M32.31,89.16c0.58,1.25,1.45,2.39,2.58,3.1c1.11,0.73,2.52,0.91,3.8,0.72c0.31-0.05,0.62-0.14,0.83-0.27
						c0.11-0.06,0.16-0.13,0.15-0.14c-0.01-0.01,0.01-0.03-0.04-0.14c-0.07-0.19-0.28-0.43-0.49-0.62c-0.22-0.2-0.48-0.38-0.75-0.52
						c-0.55-0.29-1.14-0.45-1.71-0.43c-0.57,0.02-1.14,0.21-1.65,0.52l-0.72-1.31c0.72-0.37,1.55-0.59,2.38-0.55
						c0.85,0.03,1.63,0.33,2.3,0.74c0.34,0.21,0.65,0.46,0.93,0.75c0.28,0.3,0.55,0.61,0.71,1.09c0.08,0.22,0.11,0.58-0.04,0.89
						c-0.15,0.31-0.39,0.47-0.59,0.57c-0.41,0.21-0.8,0.27-1.19,0.31c-0.76,0.07-1.51,0-2.23-0.17c-0.73-0.17-1.43-0.5-2.02-0.94
						c-1.2-0.89-2.01-2.15-2.52-3.48L32.31,89.16z"/>
				</g>
			</g>
		</g>
		<g>
			<g>
				<g>
					<path class="st0" d="M36.56,96.48c-0.17,0-0.34-0.01-0.51-0.04c-1.59-0.23-2.88-1.51-3.13-3.12l1.48-0.23
						c0.15,0.96,0.91,1.73,1.86,1.87c0.89,0.13,1.79-0.32,2.23-1.12l1.3,0.73C39.14,95.75,37.88,96.48,36.56,96.48z"/>
				</g>
			</g>
		</g>
		<g>
			<g>
				<g>
					<path class="st0" d="M80.43,58.81c-1.04,0-2.58-0.2-4.12-1.09c-2.51-1.46-3.44-3.83-3.72-4.78l0.96-0.28
						c0.25,0.84,1.06,2.92,3.26,4.2c1.68,0.98,3.35,1,4.2,0.93l0.08,0.99C80.9,58.8,80.68,58.81,80.43,58.81z"/>
				</g>
			</g>
		</g>
		<g>
			<g>
				<g>
					<path class="st0" d="M68.5,50.34c-0.81,0-2.1-0.18-3.24-1.15c-1.97-1.68-1.7-4.16-1.67-4.44l0.99,0.13
						c-0.01,0.09-0.27,2.19,1.33,3.55c1.23,1.05,2.68,0.94,3.1,0.88l0.14,0.99C69.01,50.32,68.78,50.34,68.5,50.34z"/>
				</g>
			</g>
		</g>
		<g>
			<g>
				<g>
					<path class="st0" d="M77.31,44.12c1.23,0.51,2.32,1.25,3.23,2.18c0.91,0.92,1.62,2.04,2.06,3.24c0.45,1.2,0.6,2.49,0.51,3.73
						c-0.1,1.25-0.43,2.46-0.98,3.57l-0.17-0.08c0.44-1.12,0.65-2.32,0.64-3.5c-0.02-1.18-0.27-2.35-0.78-3.39
						c-0.49-1.05-1.2-1.97-2.07-2.71c-0.86-0.73-1.89-1.3-2.94-1.62L77.31,44.12z"/>
				</g>
			</g>
		</g>
		<g>
			<g>
				<g>
					<path class="st0" d="M66.3,39.88c1.13-0.29,2.26-0.36,3.4-0.17c1.14,0.19,2.25,0.77,3.01,1.67c0.77,0.9,1.13,2.06,1.22,3.18
						c0.04,0.57,0.04,1.11-0.03,1.68c-0.06,0.56-0.2,1.12-0.4,1.64c-0.39,1.06-1.02,1.99-1.74,2.82c-0.73,0.83-1.55,1.55-2.42,2.19
						c-1.75,1.28-3.66,2.31-5.68,3.1l-0.14-0.37c1.95-0.82,3.82-1.88,5.49-3.16c1.65-1.29,3.15-2.88,3.84-4.81
						c0.35-0.95,0.41-1.99,0.32-3.01c-0.11-1-0.45-1.97-1.1-2.7c-0.65-0.72-1.55-1.18-2.52-1.31c-0.97-0.15-2.02-0.05-2.96,0.21
						L66.3,39.88z"/>
				</g>
			</g>
		</g>
		<g>
			<g>
				<g>
					<polygon class="st0" points="84.16,35.43 83.06,30.46 84.03,30.25 84.92,34.26 89.43,33.36 89.63,34.34 					"/>
				</g>
			</g>
		</g>
		<g>
			<g>
				<g>
					<path class="st0" d="M97.49,52.43c-0.04,0.17-0.09,0.34-0.15,0.5c-0.33,1.02-0.78,1.79-1.28,2.34
						c-0.21,0.24-0.43,0.45-0.66,0.62c-0.35,0.28-0.72,0.48-1.07,0.62c-0.22,0.09-0.44,0.15-0.65,0.2c-0.4,0.09-0.76,0.12-1.05,0.12
						c0,0,0,0-0.01,0c-0.42,0-0.69-0.06-0.7-0.06l-0.38-0.08l-0.02-1.64l-0.06-3.77l-0.01-0.97l0.6-0.51l0.5-0.5l-0.01,6.23l0,0.31
						c0.15,0,0.34,0,0.56-0.02c0.99-0.12,2.51-0.73,3.33-3.23c0.04-0.13,0.09-0.28,0.13-0.43L97.49,52.43z"/>
				</g>
			</g>
		</g>
		<g>
			<g>
				<g>
					<path class="st0" d="M63.51,61.45c-0.58,0-1.14-0.07-1.66-0.22c-1-0.28-1.75-0.82-2.1-1.52c-0.75-1.47,0.21-3.89,2.28-5.74
						l0.67,0.74c-1.88,1.68-2.52,3.63-2.05,4.54c0.22,0.44,0.76,0.8,1.48,1.01c1.59,0.45,3.62,0.06,5.44-1.05l0.52,0.85
						C66.61,60.97,64.99,61.45,63.51,61.45z"/>
				</g>
			</g>
		</g>
		<g>
			<g>
				<g>
					<polygon class="st0" points="58.29,61.85 55.12,53.63 60.68,56.94 60.17,57.8 57.09,55.96 58.92,60.71 61,60.29 61.19,61.27 
											"/>
				</g>
			</g>
		</g>
		<g>
			<g>
				<g>
					<polygon class="st0" points="70.75,67.53 61.65,63.63 61.15,61.01 62.12,60.82 62.53,62.92 67.4,65.01 64.2,61.1 64.97,60.47 
											"/>
				</g>
			</g>
		</g>
		<g>
			<g>
				<g>
					<path class="st0" d="M59.59,49.55c-0.38,0.48-0.72,0.93-1.02,1.37c-0.35-0.04-0.74-0.07-1.15-0.09
						c-2.47-0.11-5.93,0.21-9.42,2.13c-1.84,1-3.5,2.36-4.89,3.98c-0.25,0.3-0.5,0.61-0.74,0.93c-0.37-0.32-0.79-0.61-1.23-0.86
						c0.23-0.32,0.48-0.63,0.73-0.93c1.52-1.81,3.36-3.32,5.41-4.44c4.26-2.33,8.46-2.49,11.16-2.24
						C58.86,49.44,59.25,49.49,59.59,49.55z"/>
				</g>
			</g>
		</g>
		<g>
			<g>
				<g>
					<path class="st0" d="M98.37,53.07c-0.66,0-1.24-0.19-1.54-0.3l-0.45-0.18l0.16-0.45c3.07-8.85,0.16-18.46-6.76-22.35
						c-4.15-2.33-10.08-2.56-15.12-0.58c-3.21,1.26-5.44,3.19-6.11,5.28c-0.31,0.96-0.3,2.04,0.01,3.21l-0.96,0.25
						c-0.36-1.36-0.36-2.63,0.01-3.77c0.37-1.17,1.15-2.28,2.25-3.27l1.13-4.1c-0.23-0.71-0.15-1.47,0.22-2.12
						c0.4-0.7,1.09-1.18,1.88-1.31l1.45-0.23l1.84-2.36l15.37,4.61c3.3,0.99,6.03,3.35,7.49,6.46c3.15,6.72,4.75,10.91,4.75,12.45
						c0,2.29-1.57,3.18-2.8,3.42c0.64,2.04,0.05,4.19-1.46,5C99.29,52.99,98.81,53.07,98.37,53.07z M97.64,51.98
						c0.45,0.11,1.08,0.17,1.62-0.12c1.06-0.57,1.65-2.39,0.78-4.34l-0.31-0.7h0.77c0.25,0,2.49-0.09,2.49-2.49
						c0-1.35-1.65-5.62-4.66-12.03c-1.34-2.86-3.85-5.02-6.88-5.93l-14.72-4.42l-1.66,2.13l-1.84,0.29
						c-0.5,0.08-0.93,0.38-1.17,0.81c-0.25,0.44-0.28,0.96-0.1,1.43l0.06,0.16l-0.86,3.13c0.91-0.61,1.96-1.16,3.12-1.62
						c5.31-2.09,11.58-1.84,15.97,0.64C97.48,32.97,100.59,42.82,97.64,51.98z"/>
				</g>
			</g>
		</g>
		<g>
			<g>
				<g>
					<path class="st0" d="M106.64,56.9l-0.35-0.15c-2.2-0.94-4.62-1.26-6.99-0.93l-5.29,0.47l1.31-0.91l3.84-0.54
						c2.39-0.34,4.82-0.06,7.07,0.82c0.33-1.03,0.98-4.77-1.73-15.19c-3.31-12.77-8.86-12.11-8.92-12.1l-0.16-0.98
						c0.26-0.04,6.48-0.91,10.04,12.84c3.45,13.33,1.62,16.12,1.4,16.4L106.64,56.9z"/>
				</g>
			</g>
		</g>
		<g>
			<g>
				<g>
					<path class="st0" d="M10.97,113.41c1.75,2.29,3.42,4.64,5.02,7.06c0.79,1.21,1.55,2.44,2.26,3.71
						c0.34,0.64,0.69,1.29,0.98,1.97c0.3,0.67,0.56,1.38,0.72,2.17l-0.99,0.12c-0.1-0.64-0.28-1.3-0.53-1.96
						c-0.24-0.66-0.54-1.31-0.84-1.95c-0.62-1.28-1.31-2.55-2.02-3.8C14.11,118.24,12.58,115.8,10.97,113.41z"/>
				</g>
			</g>
		</g>
		<g>
			<g>
				<g>
					<path class="st0" d="M23.93,124.38c-1.59-5.86-3.21-11.71-4.94-17.53c-0.87-2.91-1.76-5.81-2.77-8.66
						c-1.02-2.85-2.07-5.71-3-8.61c-0.93-2.9-1.78-5.83-2.38-8.84c-0.58-3-0.98-6.09-0.59-9.22c0.11-0.78,0.26-1.56,0.51-2.32
						c0.24-0.77,0.5-1.43,0.73-2.15c0.46-1.42,0.85-2.86,1.05-4.3c0.18-1.45,0.18-2.88-0.18-4.26c-0.12-0.49-0.27-0.98-0.45-1.47
						c-0.17-0.48-0.37-0.96-0.59-1.44c0.39-0.28,0.81-0.58,1.23-0.87c0.2,0.47,0.39,0.95,0.57,1.44c0.24,0.65,0.46,1.32,0.61,2.02
						c0.38,1.57,0.35,3.22,0.12,4.78c-0.24,1.56-0.68,3.05-1.18,4.51c-0.23,0.72-0.54,1.47-0.77,2.14c-0.24,0.67-0.39,1.39-0.51,2.1
						c-0.43,2.9-0.12,5.93,0.39,8.88c0.52,2.96,1.3,5.89,2.16,8.78c0.87,2.9,1.85,5.77,2.81,8.65c0.96,2.89,1.79,5.82,2.59,8.74
						C20.97,112.61,22.47,118.49,23.93,124.38z"/>
				</g>
			</g>
		</g>
		<g>
			<g>
				<g>
					<path class="st0" d="M32.68,54.01L32.68,54.01l-1.24,0.84c-0.02-0.02-0.03-0.05-0.05-0.07c-0.16-0.23-0.32-0.46-0.5-0.67
						l-0.09-0.1c-1.33-1.58-2.96-2.45-4.97-2.64c-4.1-0.4-8.91,2.13-12.71,4.77c-0.42,0.29-0.83,0.59-1.22,0.87
						c-1.62,1.2-2.98,2.35-3.94,3.2c-0.41,0.37-0.75,0.68-1,0.91v-2.04c0.29-0.26,0.63-0.56,1-0.87c0.92-0.78,2.06-1.71,3.35-2.64
						c0.39-0.28,0.81-0.58,1.23-0.87c3.97-2.71,8.98-5.25,13.42-4.82C28.75,50.15,31,51.54,32.68,54.01z"/>
				</g>
			</g>
		</g>
		<g>
			<g>
				<g>
					<path class="st0" d="M63.97,111.1c-0.03,0.18-0.1,0.37-0.2,0.55c-0.11,0.17-0.27,0.33-0.43,0.43c-0.29,0.2-0.64,0.34-0.98,0.41
						c-0.67,0.14-1.37,0.08-2.04-0.16c-0.66-0.26-1.22-0.79-1.53-1.43c-0.15-0.29-0.57-1.31-0.99-2.37
						c-0.09-0.22-0.17-0.44-0.25-0.66c0.21,0,0.35-0.05,0.45-0.16c0.1-0.13,0.16-0.36,0.18-0.6c0-0.1,0-0.2,0-0.29
						c0.12,0.35,0.27,0.75,0.42,1.16c0.43,1.12,0.92,2.28,1.03,2.52c0.21,0.46,0.57,0.83,1.03,1.04c0.46,0.19,1.02,0.26,1.54,0.17
						c0.26-0.04,0.48-0.12,0.7-0.26c0.19-0.12,0.28-0.24,0.34-0.49c0.1-0.48,0.03-1.1-0.05-1.67c-0.02-0.14-0.04-0.28-0.07-0.41
						c-0.06-0.38-0.14-0.75-0.23-1.13c-0.01-0.07-0.03-0.14-0.05-0.21c-0.27-1.17-0.59-2.34-0.93-3.51
						c-0.16-0.58-0.33-1.16-0.53-1.73c-0.17-0.58-0.41-1.13-0.65-1.68c-0.5-1.09-1.08-2.15-1.81-3.11
						c-0.52-0.71-1.11-1.38-1.76-1.99c-0.01-0.02-0.03-0.04-0.05-0.05c-1.09-1.03-2.35-1.9-3.74-2.48c1.45,0.55,2.76,1.4,3.92,2.43
						c0.02,0.02,0.05,0.04,0.07,0.06c0.64,0.58,1.23,1.21,1.77,1.88c0.77,0.95,1.41,2.01,1.95,3.1c0.26,0.55,0.52,1.11,0.72,1.69
						c0.22,0.57,0.41,1.15,0.6,1.73c0.35,1.08,0.69,2.17,0.99,3.27c0.02,0.07,0.04,0.15,0.06,0.23c0.07,0.29,0.15,0.59,0.22,0.88
						c0.07,0.3,0.13,0.6,0.19,0.91C63.97,109.77,64.09,110.38,63.97,111.1z"/>
				</g>
			</g>
		</g>
		<g>
			<g>
				<g>
					<path class="st0" d="M58.81,107.12c-0.01,0.26-0.05,0.56-0.2,0.84c-0.02,0.05-0.05,0.09-0.08,0.14
						c-0.18,0.24-0.45,0.37-0.72,0.42c-0.1,0.02-0.2,0.03-0.29,0.03c-0.34,0-0.64-0.07-0.92-0.16c-0.14-0.04-0.28-0.09-0.42-0.15
						l-0.42-0.21c-0.53-0.33-0.96-0.77-1.32-1.24c-0.35-0.48-0.64-0.98-0.9-1.5c-0.5-1.05-0.87-2.11-1.14-3.25l0.98-0.2
						c0.2,1.04,0.53,2.1,0.96,3.08c0.22,0.49,0.47,0.96,0.76,1.39c0.3,0.42,0.65,0.8,1.06,1.08c0.38,0.24,0.95,0.45,1.38,0.47h0.03
						c0.21,0,0.35-0.05,0.45-0.16c0.1-0.13,0.16-0.36,0.18-0.6c0-0.1,0-0.2,0-0.29c-0.03-0.93-0.34-1.92-0.63-2.86
						c-0.7-2.1-1.51-4.18-2.73-6.03c-1.21-1.85-2.7-3.56-4.55-4.8c1.9,1.17,3.47,2.84,4.76,4.66c1.31,1.84,2.21,3.92,3,6.01
						C58.39,104.84,58.79,105.9,58.81,107.12z"/>
				</g>
			</g>
		</g>
		<g>
			<g>
				<g>
					<path class="st0" d="M65.18,104.67c-0.04,0.53-0.15,1.05-0.34,1.56c-0.06,0.17-0.12,0.33-0.2,0.5
						c-0.06,0.14-0.13,0.27-0.21,0.4c0,0,0,0.01,0,0.01c-0.01,0.03-0.03,0.06-0.05,0.1c-0.2,0.35-0.44,0.69-0.7,1
						c-0.17,0.21-0.36,0.42-0.55,0.61c-0.06-0.38-0.14-0.75-0.23-1.13c0.17-0.19,0.34-0.39,0.49-0.59c0.08-0.11,0.16-0.22,0.24-0.34
						c0.43-0.66,0.71-1.41,0.81-2.19c0.2-1.59-0.28-3.23-0.92-4.76c-0.68-1.5-1.36-3.14-2.83-3.96c-0.72-0.41-1.56-0.58-2.39-0.54
						c-0.31,0.01-0.63,0.05-0.94,0.11c-0.06,0.01-0.12,0.03-0.19,0.04c-0.01-0.02-0.03-0.04-0.05-0.05
						c0.06-0.02,0.11-0.03,0.17-0.05c0.33-0.08,0.66-0.14,1-0.18c0.85-0.08,1.74,0.05,2.51,0.44c0.79,0.38,1.42,1.03,1.91,1.74
						c0.51,0.71,0.87,1.47,1.26,2.23c0.38,0.77,0.69,1.58,0.92,2.41C65.12,102.88,65.25,103.77,65.18,104.67z"/>
				</g>
			</g>
		</g>
		<g>
			<g>
				<g>
					<path class="st0" d="M105.81,74.99c-0.08,0.09-0.17,0.19-0.26,0.28c-2.02,2.23-4.16,4.34-6.41,6.33
						c-0.01,0.01-0.02,0.02-0.04,0.03c-0.8,0.7-1.61,1.38-2.43,2.05c-3.26,2.64-6.75,5.01-10.39,7.09c-2.02,1.15-4.09,2.2-6.2,3.16
						c-0.49,0.23-0.99,0.45-1.5,0.66c-1.92,0.82-3.87,1.57-5.85,2.23c-0.35,0.12-0.71,0.24-1.07,0.35c-1.81,0.58-3.63,1.1-5.47,1.54
						c-0.32,0.08-0.64,0.16-0.97,0.23c-0.79,0.18-1.58,0.35-2.37,0.5c0.79-0.18,1.57-0.37,2.35-0.57c0.32-0.08,0.64-0.17,0.97-0.26
						c1.87-0.51,3.72-1.09,5.55-1.75c0.36-0.12,0.71-0.25,1.07-0.39c2.11-0.78,4.19-1.66,6.22-2.63c0.49-0.23,0.98-0.47,1.46-0.72
						c1.85-0.92,3.67-1.93,5.44-3c3.54-2.16,6.91-4.6,10.05-7.3c1.01-0.87,2-1.76,2.96-2.68c0.03-0.02,0.06-0.05,0.1-0.09
						c1.97-1.88,3.84-3.86,5.6-5.94c0.02-0.03,0.04-0.05,0.07-0.08L105.81,74.99z"/>
				</g>
			</g>
		</g>
		<g>
			<g>
				<g>
					<path class="st0" d="M107.48,75.07c-0.33,3.62-1.36,7.07-3.08,10.26c-1.24,2.31-3.15,4.62-4.74,6.31
						c-0.24,0.26-0.48,0.5-0.71,0.73c-0.16,0.16-0.31,0.31-0.46,0.46c-0.26,0.26-0.51,0.49-0.73,0.68l-0.96-1.07l-0.03-0.04
						c0.35-0.31,0.78-0.72,1.26-1.21v0c0.11-0.11,0.22-0.23,0.34-0.35c1.56-1.63,3.49-3.93,4.72-6.22c1.62-3.01,2.59-6.27,2.91-9.69
						L107.48,75.07z"/>
				</g>
			</g>
		</g>
		<g>
			<g>
				<g>
					<path class="st0" d="M94.96,65.51c-0.02,0.04-0.04,0.09-0.07,0.15c-0.39,0.86-1.44,3.16-6.99,4.33
						c-2.73,0.58-4.64,1.68-5.67,3.27c-1.2,1.85-0.88,3.9-0.49,6.5c0.37,2.47,0.84,5.54,0.06,9.29c-0.29,1.38-0.73,2.73-1.33,4.05
						c-0.12,0.27-0.25,0.54-0.38,0.8c-0.49,0.23-0.99,0.45-1.5,0.66c0.14-0.24,0.28-0.49,0.42-0.75c0.85-1.6,1.46-3.26,1.82-4.97
						c0.75-3.57,0.31-6.42-0.07-8.93c-0.41-2.7-0.76-5.03,0.64-7.19c1.18-1.83,3.3-3.07,6.3-3.71c5.06-1.07,5.96-3.03,6.3-3.78
						c0.04-0.08,0.07-0.16,0.1-0.21c1.26-2.28-0.05-5.39-1.15-7.58c-0.1-0.21-0.21-0.42-0.31-0.61c-0.04-0.08-0.08-0.16-0.12-0.24
						l-0.17-0.33l0.8-0.41l0.08-0.04l0.06,0.12h0l0.1,0.21c0.09,0.18,0.19,0.37,0.29,0.58c0.24,0.48,0.51,1.02,0.76,1.6
						C95.4,60.51,96.18,63.29,94.96,65.51z"/>
				</g>
			</g>
		</g>
		<g>
			<g>
				<g>
					<path class="st0" d="M66.18,98.71c-0.32,0.08-0.64,0.16-0.97,0.23c0-0.02-0.01-0.04-0.01-0.07
						c-0.61-2.84-2.92-13.87-3.35-20.34c-0.23-3.57-0.59-6.12-0.89-7.79c-0.07-0.39-0.14-0.74-0.2-1.04
						c0.38,0.07,0.73,0.13,1.05,0.17c0.06,0.3,0.12,0.65,0.19,1.03c0.29,1.7,0.62,4.18,0.85,7.56c0.42,6.37,2.7,17.26,3.32,20.15
						C66.17,98.64,66.18,98.67,66.18,98.71z"/>
				</g>
			</g>
		</g>
		<g>
			<g>
				<g>
					<path class="st0" d="M73.32,85.44c0.31,4.31-0.14,8.46-0.54,11.03c-0.02,0.12-0.04,0.23-0.05,0.35
						c-0.35,0.12-0.71,0.24-1.07,0.35c0.02-0.1,0.03-0.2,0.05-0.3c0.39-2.43,0.93-6.8,0.61-11.35c-0.5-7.09,8.93-19.04,9.34-19.55
						l0.78,0.62C82.34,66.7,72.84,78.73,73.32,85.44z"/>
				</g>
			</g>
		</g>
		<g>
			<g>
				<g>
					<path class="st0" d="M60.35,89.46c0.14-1.9-0.09-3.79-0.33-5.67c-0.26-1.88-0.6-3.75-1.01-5.6c-0.19-0.93-0.42-1.85-0.63-2.77
						l-0.7-2.75l-0.75-2.74l-0.14-0.49l-0.39-1.34c0.51,0.33,1.08,0.6,1.65,0.83l0.15,0.69l0.09,0.44l0.48,2.36l0.52,2.82
						c0.15,0.94,0.32,1.88,0.45,2.83c0.28,1.89,0.5,3.78,0.64,5.69C60.51,85.66,60.61,87.58,60.35,89.46z"/>
				</g>
			</g>
		</g>
		<g>
			<g>
				<g>
					<path class="st0" d="M90.49,86.06l0.27,0.81l-0.74,0.85l-0.25-0.69l-0.03-0.1l-0.05-0.2l-0.1-0.4
						c-0.06-0.27-0.13-0.54-0.18-0.81c-0.12-0.54-0.21-1.09-0.29-1.64c-0.06-0.45-0.11-0.91-0.14-1.36
						c-0.03-0.39-0.04-0.78-0.04-1.17c0-0.26,0-0.52,0.02-0.78c0.05-1.11,0.27-2.21,0.69-3.24c0.4-1.03,0.96-1.98,1.61-2.85
						l0.07,0.05c-0.58,0.91-1.07,1.89-1.39,2.91c-0.33,1.02-0.46,2.09-0.44,3.15c0,0.45,0.03,0.9,0.08,1.34
						c0.04,0.43,0.11,0.86,0.19,1.28c0.03,0.18,0.06,0.36,0.1,0.54c0.11,0.52,0.24,1.04,0.39,1.55
						C90.33,85.55,90.41,85.81,90.49,86.06z"/>
				</g>
			</g>
		</g>
		<g>
			<g>
				<g>
					<path class="st0" d="M89.76,83.2c-0.28-0.21-0.55-0.44-0.8-0.69c-0.19-0.19-0.37-0.38-0.53-0.6c-0.46-0.55-0.82-1.18-1.09-1.83
						c-0.27-0.65-0.45-1.34-0.54-2.03c-0.09-0.69-0.1-1.39-0.01-2.07c-0.01,0.68,0.09,1.36,0.25,2.02c0.17,0.65,0.42,1.28,0.75,1.86
						c0.31,0.55,0.68,1.06,1.13,1.48c0.02,0.02,0.04,0.04,0.06,0.06c0.18,0.18,0.37,0.35,0.58,0.51
						C89.61,82.35,89.68,82.78,89.76,83.2z"/>
				</g>
			</g>
		</g>
		<g>
			<g>
				<g>
					<path class="st0" d="M104.48,69.38l-0.99,0.88c-0.43-2.41-1.91-5.33-3.35-7.29c-1.27-1.73-3.62-3.4-5.71-4.65
						c-0.53-0.32-1.04-0.61-1.51-0.87c-0.1-0.21-0.21-0.42-0.31-0.61c-0.42,0-0.69-0.06-0.7-0.06l-0.38-0.08l-0.02-1.64
						c0.28,0.13,0.62,0.29,1.01,0.49l0,0.31c0.15,0,0.34,0,0.56-0.02c0.02,0.01,0.03,0.02,0.05,0.03c0.05,0.02,0.09,0.05,0.14,0.07
						h0c0.33,0.18,0.68,0.37,1.05,0.58c2.41,1.37,5.43,3.4,7.03,5.57C102.93,64.22,104.01,66.74,104.48,69.38z"/>
				</g>
			</g>
		</g>
		<g>
			<g>
				<g>
					<path class="st0" d="M110.26,73.97c0,0.04-0.01,0.09-0.03,0.14c0,0.02-0.02,0.07-0.05,0.12c-0.01,0.02-0.02,0.04-0.04,0.06
						c-0.32,0.55-0.74,1.02-1.32,1.36c-0.59,0.35-1.37,0.44-2.03,0.26c-0.46-0.12-0.88-0.35-1.24-0.65
						c-0.16-0.12-0.3-0.27-0.43-0.42c-0.2-0.23-0.37-0.48-0.5-0.75c-0.16-0.31-0.28-0.65-0.35-0.99l0.98-0.21
						c0.1,0.48,0.32,0.93,0.64,1.3c0.31,0.36,0.72,0.64,1.17,0.75c0.44,0.11,0.89,0.07,1.28-0.16c0.37-0.21,0.72-0.58,0.94-0.97
						c0-0.02,0-0.05,0-0.09c-0.01-0.09-0.03-0.2-0.06-0.3c-0.05-0.21-0.12-0.43-0.2-0.65c-0.15-0.43-0.34-0.86-0.56-1.27
						c-0.43-0.79-0.98-1.62-1.74-1.8c-0.8-0.2-1.74,0.09-2.56,0.48c-0.83,0.41-1.63,0.95-2.31,1.59c-1.38,1.28-2.21,3.09-2.57,4.96
						c-0.2,1.08-0.28,2.18-0.24,3.29c0.01,0.52,0.05,1.05,0.12,1.57c-0.01,0.01-0.02,0.02-0.04,0.03c-0.08-0.49-0.14-1-0.18-1.5
						c-0.09-1.14-0.06-2.29,0.1-3.43c0.28-1.92,1.06-3.84,2.47-5.26c0.7-0.71,1.5-1.31,2.38-1.79c0.44-0.23,0.91-0.44,1.41-0.57
						c0.5-0.13,1.04-0.19,1.6-0.08c0.27,0.06,0.55,0.17,0.79,0.32c0.24,0.15,0.44,0.33,0.62,0.52c0.36,0.38,0.65,0.81,0.91,1.24
						c0.26,0.44,0.48,0.89,0.67,1.36c0.09,0.23,0.18,0.47,0.26,0.72c0.03,0.13,0.07,0.25,0.1,0.4c0.01,0.07,0.02,0.15,0.03,0.24
						C110.26,73.84,110.26,73.92,110.26,73.97z"/>
				</g>
			</g>
		</g>
		<g>
			<g>
				<g>
					<path class="st0" d="M87.54,31.17c-3.21-1.9-7.28-2.26-11.18-0.99c-3.29,1.07-6.1,3.21-8.02,6.05v0
						c-0.3,0.43-0.58,0.88-0.83,1.35v0c-0.23,0.41-0.43,0.82-0.62,1.25c-1.71,2.41-3.54,4.73-5.42,6.9
						c-1.25,1.44-2.22,2.59-3.04,3.67c-0.37,0.48-0.71,0.95-1.02,1.43c-0.65,0.97-1.22,1.95-1.8,3.09c-0.07,0.13-0.14,0.27-0.2,0.4
						c0,0,0,0.01-0.01,0.02c-0.83,1.71-1.41,3.29-1.77,4.83c-0.56,2.42-1.15,4.93-0.22,7.04c0.65,1.49,1.94,2.51,3.38,3.22
						c0.49,0.24,1,0.45,1.51,0.62c0.93,0.32,1.86,0.53,2.66,0.67c0.38,0.07,0.73,0.12,1.04,0.16c0.75,0.09,1.25,0.11,1.33,0.11
						c0.18,0,0.36,0.01,0.53,0.01c3.11,0,4.97-0.98,6.94-2.02c2.01-1.06,4.08-2.15,7.77-2.23c0.9-0.02,1.69,0.03,2.4,0.08
						c0.25,0.02,0.49,0.04,0.72,0.06c0.15,0.01,0.3,0.03,0.45,0.04c1.63,0.14,2.98,0.18,4.64-0.75c2.24-1.26,3.77-3.54,4.13-5.13
						c0.17-0.75,0.09-1.38-0.22-1.83c-0.89-1.25-3.47-0.95-6.13,0l6.88-7.97l0.85-0.98l0.36-0.42l0.08-0.12
						C95.76,42.86,93.48,34.69,87.54,31.17z M91.84,49.29L80.86,62.01l2.15-1.03c3.55-1.7,6.33-1.92,6.86-1.16
						c0.15,0.21,0.17,0.57,0.07,1.03c-0.3,1.34-1.68,3.37-3.65,4.48c-1.54,0.86-2.72,0.76-4.51,0.59c-0.92-0.08-1.96-0.18-3.24-0.15
						c-3.93,0.08-6.11,1.23-8.21,2.34c-1.96,1.03-3.81,2.01-6.98,1.9c-0.08,0-0.68-0.02-1.55-0.14c-0.32-0.04-0.67-0.1-1.05-0.17
						c-0.84-0.16-1.79-0.4-2.71-0.76c-0.57-0.22-1.14-0.5-1.65-0.83c-0.9-0.57-1.65-1.32-2.07-2.28c-0.79-1.81-0.25-4.16,0.27-6.42
						c0.28-1.21,0.71-2.44,1.3-3.76c0.12-0.29,0.26-0.58,0.41-0.88c0.05-0.11,0.11-0.22,0.16-0.33c0.65-1.29,1.27-2.35,2.09-3.51
						c0.3-0.44,0.64-0.89,1.02-1.37c0.71-0.91,1.56-1.92,2.63-3.15c0.46-0.53,0.92-1.07,1.37-1.61c0-0.01,0.01-0.02,0.02-0.02
						c1.05-1.28,2.09-2.6,3.09-3.96c0.28-0.38,0.56-0.76,0.84-1.15c0.06-0.09,0.13-0.18,0.2-0.28l0.05-0.09
						c1.67-3.88,4.9-6.85,8.88-8.15c1.43-0.47,2.88-0.7,4.3-0.7c0.71,0,1.42,0.06,2.11,0.18c0.36,0.05,0.72,0.13,1.08,0.23
						c1.01,0.26,1.98,0.67,2.87,1.19c0.69,0.41,1.33,0.89,1.91,1.43c0.22,0.2,0.43,0.41,0.64,0.63
						C93.11,37.89,94.15,43.98,91.84,49.29z"/>
				</g>
			</g>
		</g>
		<g>
			<g>
				<g>
					<path class="st0" d="M40.05,129.52c-0.03,0.35-0.06,0.69-0.09,1.03c-0.28,0.04-0.62,0.09-1.01,0.13
						c-0.91,0.1-2.1,0.18-3.54,0.18c-0.99,0-1.7,0.24-2.09,0.71c-0.51,0.61-0.16,2.02-0.16,2.03h-1c-0.01-0.05-0.42-1.67,0.38-2.65
						c0.58-0.72,1.55-1.09,2.86-1.09c1.51,0,2.73-0.09,3.63-0.2C39.45,129.62,39.79,129.57,40.05,129.52z"/>
				</g>
			</g>
		</g>
		<g>
			<g>
				<g>
					<path class="st0" d="M21.46,84.83c-0.33-0.06-0.67-0.1-1.02-0.1c-0.12,0-0.23,0-0.35,0.01c-0.18,0.36-0.37,0.72-0.55,1.08
						c0.29-0.06,0.59-0.09,0.9-0.09c0.19,0,0.38,0.01,0.57,0.04c2.07,0.28,3.67,2.06,3.67,4.2c0,2.34-1.9,4.24-4.24,4.24h-0.09
						c-0.39-0.01-0.78-0.07-1.14-0.18c0.18,0.51,0.33,0.89,0.42,1.12c0.26,0.04,0.53,0.06,0.81,0.06c0.08,0,0.17,0,0.26,0
						c2.77-0.13,4.98-2.43,4.98-5.23C25.68,87.42,23.86,85.3,21.46,84.83z M16.7,86.31c0.11,0.39,0.22,0.77,0.33,1.14
						c0.23-0.32,0.51-0.6,0.82-0.84c-0.1-0.33-0.2-0.67-0.29-1.02C17.25,85.8,16.96,86.04,16.7,86.31z"/>
				</g>
			</g>
		</g>
		<g>
			<g>
				<path class="st0" d="M118.46,138.1H5.23V17.39h113.23V138.1z M8.72,134.61h106.25V20.88H8.72V134.61z"/>
			</g>
		</g>
	</g>
	<g>
		<g>
			<g>
				<path class="st0" d="M89.48,99.23c-0.71,0-1.29-0.58-1.29-1.29c0-0.71,0.58-1.29,1.29-1.29c0.71,0,1.29,0.58,1.29,1.29
					C90.76,98.65,90.19,99.23,89.48,99.23z M89.48,97.08c-0.47,0-0.86,0.39-0.86,0.86S89,98.8,89.48,98.8
					c0.47,0,0.86-0.39,0.86-0.86S89.95,97.08,89.48,97.08z"/>
			</g>
		</g>
		<g>
			<g>
				<path class="st0" d="M89.48,96.22c-0.72,0-1.29-0.85-1.29-1.93c0-1.08,0.57-1.93,1.29-1.93c0.72,0,1.29,0.85,1.29,1.93
					C90.76,95.38,90.2,96.22,89.48,96.22z M89.48,92.79c-0.47,0-0.86,0.69-0.86,1.5c0,0.81,0.39,1.5,0.86,1.5
					c0.47,0,0.86-0.69,0.86-1.5C90.33,93.48,89.94,92.79,89.48,92.79z"/>
			</g>
		</g>
		<g>
			<g>
				<path class="st0" d="M93.13,99.02c-1.08,0-1.93-0.57-1.93-1.29s0.85-1.29,1.93-1.29c1.08,0,1.93,0.57,1.93,1.29
					S94.21,99.02,93.13,99.02z M93.13,96.87c-0.81,0-1.5,0.39-1.5,0.86s0.69,0.86,1.5,0.86s1.5-0.39,1.5-0.86
					S93.94,96.87,93.13,96.87z"/>
			</g>
		</g>
		<g>
			<g>
				<path class="st0" d="M85.82,99.02c-1.08,0-1.93-0.57-1.93-1.29s0.85-1.29,1.93-1.29c1.08,0,1.93,0.57,1.93,1.29
					S86.91,99.02,85.82,99.02z M85.82,96.87c-0.81,0-1.5,0.39-1.5,0.86s0.69,0.86,1.5,0.86c0.81,0,1.5-0.39,1.5-0.86
					S86.64,96.87,85.82,96.87z"/>
			</g>
		</g>
		<g>
			<g>
				<path class="st0" d="M89.48,103.53c-0.72,0-1.29-0.85-1.29-1.93s0.57-1.93,1.29-1.93c0.72,0,1.29,0.85,1.29,1.93
					S90.2,103.53,89.48,103.53z M89.48,100.09c-0.47,0-0.86,0.69-0.86,1.5s0.39,1.5,0.86,1.5c0.47,0,0.86-0.69,0.86-1.5
					S89.94,100.09,89.48,100.09z"/>
			</g>
		</g>
	</g>
	<g>
		<g>
			<g>
				<path class="st0" d="M97.85,112.62c-0.71,0-1.29-0.58-1.29-1.29c0-0.71,0.58-1.29,1.29-1.29c0.71,0,1.29,0.58,1.29,1.29
					C99.14,112.04,98.56,112.62,97.85,112.62z M97.85,110.47c-0.47,0-0.86,0.39-0.86,0.86c0,0.47,0.39,0.86,0.86,0.86
					s0.86-0.39,0.86-0.86C98.71,110.86,98.33,110.47,97.85,110.47z"/>
			</g>
		</g>
		<g>
			<g>
				<path class="st0" d="M97.85,109.61c-0.72,0-1.29-0.85-1.29-1.93c0-1.08,0.57-1.93,1.29-1.93c0.72,0,1.29,0.85,1.29,1.93
					C99.14,108.77,98.58,109.61,97.85,109.61z M97.85,106.18c-0.47,0-0.86,0.69-0.86,1.5s0.39,1.5,0.86,1.5
					c0.47,0,0.86-0.69,0.86-1.5S98.32,106.18,97.85,106.18z"/>
			</g>
		</g>
		<g>
			<g>
				<path class="st0" d="M101.51,112.41c-1.08,0-1.93-0.57-1.93-1.29c0-0.72,0.85-1.29,1.93-1.29s1.93,0.57,1.93,1.29
					C103.44,111.84,102.59,112.41,101.51,112.41z M101.51,110.26c-0.81,0-1.5,0.39-1.5,0.86c0,0.47,0.69,0.86,1.5,0.86
					s1.5-0.39,1.5-0.86C103.01,110.65,102.32,110.26,101.51,110.26z"/>
			</g>
		</g>
		<g>
			<g>
				<path class="st0" d="M94.2,112.41c-1.08,0-1.93-0.57-1.93-1.29c0-0.72,0.85-1.29,1.93-1.29c1.08,0,1.93,0.57,1.93,1.29
					C96.14,111.84,95.29,112.41,94.2,112.41z M94.2,110.26c-0.81,0-1.5,0.39-1.5,0.86c0,0.47,0.69,0.86,1.5,0.86s1.5-0.39,1.5-0.86
					C95.71,110.65,95.02,110.26,94.2,110.26z"/>
			</g>
		</g>
		<g>
			<g>
				<path class="st0" d="M97.85,116.92c-0.72,0-1.29-0.85-1.29-1.93c0-1.08,0.57-1.93,1.29-1.93c0.72,0,1.29,0.85,1.29,1.93
					C99.14,116.07,98.58,116.92,97.85,116.92z M97.85,113.48c-0.47,0-0.86,0.69-0.86,1.5c0,0.81,0.39,1.5,0.86,1.5
					c0.47,0,0.86-0.69,0.86-1.5C98.71,114.17,98.32,113.48,97.85,113.48z"/>
			</g>
		</g>
	</g>
	<g>
		<g>
			<g>
				<path class="st0" d="M105.59,100.88c-0.71,0-1.29-0.58-1.29-1.29c0-0.71,0.58-1.29,1.29-1.29s1.29,0.58,1.29,1.29
					C106.88,100.3,106.3,100.88,105.59,100.88z M105.59,98.73c-0.47,0-0.86,0.39-0.86,0.86c0,0.47,0.39,0.86,0.86,0.86
					s0.86-0.39,0.86-0.86C106.45,99.12,106.06,98.73,105.59,98.73z"/>
			</g>
		</g>
		<g>
			<g>
				<path class="st0" d="M105.59,97.87c-0.72,0-1.29-0.85-1.29-1.93c0-1.08,0.57-1.93,1.29-1.93s1.29,0.85,1.29,1.93
					C106.88,97.02,106.31,97.87,105.59,97.87z M105.59,94.43c-0.47,0-0.86,0.69-0.86,1.5c0,0.81,0.39,1.5,0.86,1.5
					c0.47,0,0.86-0.69,0.86-1.5C106.45,95.12,106.05,94.43,105.59,94.43z"/>
			</g>
		</g>
		<g>
			<g>
				<path class="st0" d="M109.24,100.66c-1.08,0-1.93-0.57-1.93-1.29c0-0.72,0.85-1.29,1.93-1.29s1.93,0.57,1.93,1.29
					C111.17,100.1,110.32,100.66,109.24,100.66z M109.24,98.51c-0.81,0-1.5,0.39-1.5,0.86c0,0.47,0.69,0.86,1.5,0.86
					s1.5-0.39,1.5-0.86C110.74,98.91,110.05,98.51,109.24,98.51z"/>
			</g>
		</g>
		<g>
			<g>
				<path class="st0" d="M101.94,100.66c-1.08,0-1.93-0.57-1.93-1.29c0-0.72,0.85-1.29,1.93-1.29c1.08,0,1.93,0.57,1.93,1.29
					C103.87,100.1,103.02,100.66,101.94,100.66z M101.94,98.51c-0.81,0-1.5,0.39-1.5,0.86c0,0.47,0.69,0.86,1.5,0.86
					s1.5-0.39,1.5-0.86C103.44,98.91,102.75,98.51,101.94,98.51z"/>
			</g>
		</g>
		<g>
			<g>
				<path class="st0" d="M105.59,105.17c-0.72,0-1.29-0.85-1.29-1.93c0-1.08,0.57-1.93,1.29-1.93s1.29,0.85,1.29,1.93
					C106.88,104.32,106.31,105.17,105.59,105.17z M105.59,101.74c-0.47,0-0.86,0.69-0.86,1.5c0,0.81,0.39,1.5,0.86,1.5
					c0.47,0,0.86-0.69,0.86-1.5C106.45,102.42,106.05,101.74,105.59,101.74z"/>
			</g>
		</g>
	</g>
	<g>
		<g>
			<g>
				<path class="st0" d="M82.53,117.92c-0.71,0-1.29-0.58-1.29-1.29c0-0.71,0.58-1.29,1.29-1.29c0.71,0,1.29,0.58,1.29,1.29
					C83.82,117.34,83.24,117.92,82.53,117.92z M82.53,115.77c-0.47,0-0.86,0.39-0.86,0.86s0.39,0.86,0.86,0.86
					c0.47,0,0.86-0.39,0.86-0.86S83,115.77,82.53,115.77z"/>
			</g>
		</g>
		<g>
			<g>
				<path class="st0" d="M82.53,114.91c-0.72,0-1.29-0.85-1.29-1.93c0-1.08,0.57-1.93,1.29-1.93c0.72,0,1.29,0.85,1.29,1.93
					C83.82,114.06,83.25,114.91,82.53,114.91z M82.53,111.48c-0.47,0-0.86,0.69-0.86,1.5c0,0.81,0.39,1.5,0.86,1.5
					c0.47,0,0.86-0.69,0.86-1.5C83.39,112.17,83,111.48,82.53,111.48z"/>
			</g>
		</g>
		<g>
			<g>
				<path class="st0" d="M86.18,117.71c-1.08,0-1.93-0.57-1.93-1.29s0.85-1.29,1.93-1.29c1.08,0,1.93,0.57,1.93,1.29
					S87.27,117.71,86.18,117.71z M86.18,115.56c-0.81,0-1.5,0.39-1.5,0.86s0.69,0.86,1.5,0.86c0.81,0,1.5-0.39,1.5-0.86
					S87,115.56,86.18,115.56z"/>
			</g>
		</g>
		<g>
			<g>
				<path class="st0" d="M78.88,117.71c-1.08,0-1.93-0.57-1.93-1.29s0.85-1.29,1.93-1.29c1.08,0,1.93,0.57,1.93,1.29
					S79.96,117.71,78.88,117.71z M78.88,115.56c-0.81,0-1.5,0.39-1.5,0.86s0.69,0.86,1.5,0.86c0.81,0,1.5-0.39,1.5-0.86
					S79.69,115.56,78.88,115.56z"/>
			</g>
		</g>
		<g>
			<g>
				<path class="st0" d="M82.53,122.22c-0.72,0-1.29-0.85-1.29-1.93s0.57-1.93,1.29-1.93c0.72,0,1.29,0.85,1.29,1.93
					S83.25,122.22,82.53,122.22z M82.53,118.78c-0.47,0-0.86,0.69-0.86,1.5s0.39,1.5,0.86,1.5c0.47,0,0.86-0.69,0.86-1.5
					S83,118.78,82.53,118.78z"/>
			</g>
		</g>
	</g>
	<g>
		<g>
			<g>
				<path class="st0" d="M64.49,123.93c-0.71,0-1.29-0.58-1.29-1.29s0.58-1.29,1.29-1.29c0.71,0,1.29,0.58,1.29,1.29
					S65.2,123.93,64.49,123.93z M64.49,121.79c-0.47,0-0.86,0.39-0.86,0.86s0.39,0.86,0.86,0.86s0.86-0.39,0.86-0.86
					S64.96,121.79,64.49,121.79z"/>
			</g>
		</g>
		<g>
			<g>
				<path class="st0" d="M64.49,120.93c-0.72,0-1.29-0.85-1.29-1.93c0-1.08,0.57-1.93,1.29-1.93c0.72,0,1.29,0.85,1.29,1.93
					C65.77,120.08,65.21,120.93,64.49,120.93z M64.49,117.49c-0.47,0-0.86,0.69-0.86,1.5s0.39,1.5,0.86,1.5s0.86-0.69,0.86-1.5
					S64.95,117.49,64.49,117.49z"/>
			</g>
		</g>
		<g>
			<g>
				<path class="st0" d="M68.14,123.72c-1.08,0-1.93-0.57-1.93-1.29c0-0.72,0.85-1.29,1.93-1.29s1.93,0.57,1.93,1.29
					C70.07,123.15,69.22,123.72,68.14,123.72z M68.14,121.57c-0.81,0-1.5,0.39-1.5,0.86c0,0.47,0.69,0.86,1.5,0.86
					s1.5-0.39,1.5-0.86C69.64,121.97,68.95,121.57,68.14,121.57z"/>
			</g>
		</g>
		<g>
			<g>
				<path class="st0" d="M60.83,123.72c-1.08,0-1.93-0.57-1.93-1.29c0-0.72,0.85-1.29,1.93-1.29c1.08,0,1.93,0.57,1.93,1.29
					C62.77,123.15,61.92,123.72,60.83,123.72z M60.83,121.57c-0.81,0-1.5,0.39-1.5,0.86c0,0.47,0.69,0.86,1.5,0.86
					c0.81,0,1.5-0.39,1.5-0.86C62.34,121.97,61.65,121.57,60.83,121.57z"/>
			</g>
		</g>
		<g>
			<g>
				<path class="st0" d="M64.49,128.23c-0.72,0-1.29-0.85-1.29-1.93s0.57-1.93,1.29-1.93c0.72,0,1.29,0.85,1.29,1.93
					S65.21,128.23,64.49,128.23z M64.49,124.79c-0.47,0-0.86,0.69-0.86,1.5s0.39,1.5,0.86,1.5s0.86-0.69,0.86-1.5
					S64.95,124.79,64.49,124.79z"/>
			</g>
		</g>
	</g>
	<g>
		<g>
			<g>
				<path class="st0" d="M91.55,128.95c-0.71,0-1.29-0.58-1.29-1.29c0-0.71,0.58-1.29,1.29-1.29c0.71,0,1.29,0.58,1.29,1.29
					C92.84,128.37,92.26,128.95,91.55,128.95z M91.55,126.8c-0.47,0-0.86,0.39-0.86,0.86s0.39,0.86,0.86,0.86s0.86-0.39,0.86-0.86
					S92.03,126.8,91.55,126.8z"/>
			</g>
		</g>
		<g>
			<g>
				<path class="st0" d="M91.55,125.94c-0.72,0-1.29-0.85-1.29-1.93c0-1.08,0.57-1.93,1.29-1.93c0.72,0,1.29,0.85,1.29,1.93
					C92.84,125.09,92.28,125.94,91.55,125.94z M91.55,122.5c-0.47,0-0.86,0.69-0.86,1.5s0.39,1.5,0.86,1.5
					c0.47,0,0.86-0.69,0.86-1.5S92.02,122.5,91.55,122.5z"/>
			</g>
		</g>
		<g>
			<g>
				<path class="st0" d="M95.2,128.73c-1.08,0-1.93-0.57-1.93-1.29s0.85-1.29,1.93-1.29c1.08,0,1.93,0.57,1.93,1.29
					S96.29,128.73,95.2,128.73z M95.2,126.58c-0.81,0-1.5,0.39-1.5,0.86c0,0.47,0.69,0.86,1.5,0.86c0.81,0,1.5-0.39,1.5-0.86
					C96.71,126.98,96.02,126.58,95.2,126.58z"/>
			</g>
		</g>
		<g>
			<g>
				<path class="st0" d="M87.9,128.73c-1.08,0-1.93-0.57-1.93-1.29s0.85-1.29,1.93-1.29s1.93,0.57,1.93,1.29
					S88.99,128.73,87.9,128.73z M87.9,126.58c-0.81,0-1.5,0.39-1.5,0.86c0,0.47,0.69,0.86,1.5,0.86s1.5-0.39,1.5-0.86
					C89.41,126.98,88.72,126.58,87.9,126.58z"/>
			</g>
		</g>
		<g>
			<g>
				<path class="st0" d="M91.55,133.24c-0.72,0-1.29-0.85-1.29-1.93c0-1.08,0.57-1.93,1.29-1.93c0.72,0,1.29,0.85,1.29,1.93
					C92.84,132.39,92.28,133.24,91.55,133.24z M91.55,129.81c-0.47,0-0.86,0.69-0.86,1.5c0,0.81,0.39,1.5,0.86,1.5
					c0.47,0,0.86-0.69,0.86-1.5C92.41,130.49,92.02,129.81,91.55,129.81z"/>
			</g>
		</g>
	</g>
	<g>
		<g>
			<g>
				<path class="st0" d="M107.59,124.94c-0.71,0-1.29-0.58-1.29-1.29s0.58-1.29,1.29-1.29c0.71,0,1.29,0.58,1.29,1.29
					S108.3,124.94,107.59,124.94z M107.59,122.79c-0.47,0-0.86,0.39-0.86,0.86s0.39,0.86,0.86,0.86s0.86-0.39,0.86-0.86
					S108.07,122.79,107.59,122.79z"/>
			</g>
		</g>
		<g>
			<g>
				<path class="st0" d="M107.59,121.93c-0.72,0-1.29-0.85-1.29-1.93s0.57-1.93,1.29-1.93c0.72,0,1.29,0.85,1.29,1.93
					S108.32,121.93,107.59,121.93z M107.59,118.49c-0.47,0-0.86,0.69-0.86,1.5s0.39,1.5,0.86,1.5c0.47,0,0.86-0.69,0.86-1.5
					S108.06,118.49,107.59,118.49z"/>
			</g>
		</g>
		<g>
			<g>
				<path class="st0" d="M111.24,124.72c-1.08,0-1.93-0.57-1.93-1.29c0-0.72,0.85-1.29,1.93-1.29c1.08,0,1.93,0.57,1.93,1.29
					C113.18,124.16,112.33,124.72,111.24,124.72z M111.24,122.57c-0.81,0-1.5,0.39-1.5,0.86c0,0.47,0.69,0.86,1.5,0.86
					c0.81,0,1.5-0.39,1.5-0.86C112.75,122.97,112.06,122.57,111.24,122.57z"/>
			</g>
		</g>
		<g>
			<g>
				<path class="st0" d="M103.94,124.72c-1.08,0-1.93-0.57-1.93-1.29c0-0.72,0.85-1.29,1.93-1.29s1.93,0.57,1.93,1.29
					C105.87,124.16,105.03,124.72,103.94,124.72z M103.94,122.57c-0.81,0-1.5,0.39-1.5,0.86c0,0.47,0.69,0.86,1.5,0.86
					s1.5-0.39,1.5-0.86C105.45,122.97,104.76,122.57,103.94,122.57z"/>
			</g>
		</g>
		<g>
			<g>
				<path class="st0" d="M107.59,129.23c-0.72,0-1.29-0.85-1.29-1.93c0-1.08,0.57-1.93,1.29-1.93c0.72,0,1.29,0.85,1.29,1.93
					C108.88,128.38,108.32,129.23,107.59,129.23z M107.59,125.8c-0.47,0-0.86,0.69-0.86,1.5s0.39,1.5,0.86,1.5
					c0.47,0,0.86-0.69,0.86-1.5S108.06,125.8,107.59,125.8z"/>
			</g>
		</g>
	</g>
	<g>
		<g>
			<g>
				<path class="st0" d="M73.51,106.89c-0.71,0-1.29-0.58-1.29-1.29c0-0.71,0.58-1.29,1.29-1.29c0.71,0,1.29,0.58,1.29,1.29
					C74.8,106.31,74.22,106.89,73.51,106.89z M73.51,104.74c-0.47,0-0.86,0.39-0.86,0.86c0,0.47,0.39,0.86,0.86,0.86
					s0.86-0.39,0.86-0.86C74.37,105.13,73.98,104.74,73.51,104.74z"/>
			</g>
		</g>
		<g>
			<g>
				<path class="st0" d="M73.51,103.89c-0.72,0-1.29-0.85-1.29-1.93c0-1.08,0.57-1.93,1.29-1.93c0.72,0,1.29,0.85,1.29,1.93
					C74.8,103.04,74.23,103.89,73.51,103.89z M73.51,100.45c-0.47,0-0.86,0.69-0.86,1.5c0,0.81,0.39,1.5,0.86,1.5
					c0.47,0,0.86-0.69,0.86-1.5C74.37,101.14,73.97,100.45,73.51,100.45z"/>
			</g>
		</g>
		<g>
			<g>
				<path class="st0" d="M77.16,106.68c-1.08,0-1.93-0.57-1.93-1.29c0-0.72,0.85-1.29,1.93-1.29s1.93,0.57,1.93,1.29
					C79.09,106.11,78.24,106.68,77.16,106.68z M77.16,104.53c-0.81,0-1.5,0.39-1.5,0.86c0,0.47,0.69,0.86,1.5,0.86
					s1.5-0.39,1.5-0.86C78.66,104.92,77.97,104.53,77.16,104.53z"/>
			</g>
		</g>
		<g>
			<g>
				<path class="st0" d="M69.86,106.68c-1.08,0-1.93-0.57-1.93-1.29c0-0.72,0.85-1.29,1.93-1.29c1.08,0,1.93,0.57,1.93,1.29
					C71.79,106.11,70.94,106.68,69.86,106.68z M69.86,104.53c-0.81,0-1.5,0.39-1.5,0.86c0,0.47,0.69,0.86,1.5,0.86
					c0.81,0,1.5-0.39,1.5-0.86C71.36,104.92,70.67,104.53,69.86,104.53z"/>
			</g>
		</g>
		<g>
			<g>
				<path class="st0" d="M73.51,111.19c-0.72,0-1.29-0.85-1.29-1.93c0-1.08,0.57-1.93,1.29-1.93c0.72,0,1.29,0.85,1.29,1.93
					C74.8,110.34,74.23,111.19,73.51,111.19z M73.51,107.75c-0.47,0-0.86,0.69-0.86,1.5s0.39,1.5,0.86,1.5
					c0.47,0,0.86-0.69,0.86-1.5S73.97,107.75,73.51,107.75z"/>
			</g>
		</g>
	</g>
	<g>
		<g>
			<path class="st0" d="M116.77,112.61c-1.98-16.79-8.93-36.78-9-36.98l0.96-0.34c0.07,0.2,7.06,20.3,9.05,37.2L116.77,112.61z"/>
		</g>
	</g>
</g>
</svg>
